<svg width="21" height="23" viewBox="0 0 21 23" fill="none" xmlns="http://www.w3.org/2000/svg">
<path d="M10.9734 18.4591C11.5788 18.4591 12.0688 17.967 12.0664 17.3617C11.4618 17.3639 10.9734 17.8544 10.9734 18.4591ZM13.1681 18.4602C12.8949 18.4602 12.8074 18.8285 13.0518 18.9507C13.1286 18.7981 13.1681 18.6302 13.1681 18.4602ZM6.69994 18.9507C6.94435 18.8285 6.8573 18.4602 6.58406 18.4602C6.58406 18.6302 6.62368 18.7981 6.69994 18.9507ZM7.68624 17.3617C7.68357 17.967 8.17349 18.4591 8.77875 18.4591C8.77875 17.8544 8.29033 17.3639 7.68624 17.3617ZM19.7522 10.7788C19.7522 9.26003 19.7533 8.03869 19.6545 7.06205C19.5525 6.06567 19.3374 5.20203 18.8271 4.43828L17.0022 5.65746C17.2316 6.00092 17.3874 6.4618 17.4708 7.28371C17.5564 8.12428 17.5575 9.21504 17.5575 10.7788H19.7522ZM18.8271 17.1192C19.3374 16.3555 19.5525 15.4918 19.6545 14.4954C19.7533 13.5188 19.7522 12.2975 19.7522 10.7788H17.5575C17.5575 12.3425 17.5564 13.4332 17.4708 14.2738C17.3874 15.0957 17.2316 15.5566 17.0022 15.9L18.8271 17.1192ZM17.3139 18.6325C17.913 18.233 18.4277 17.7184 18.8271 17.1192L17.0022 15.9C16.763 16.2589 16.4536 16.5683 16.0947 16.8075L17.3139 18.6325ZM12.0664 17.3617C12.0712 18.5736 13.0599 19.5805 14.2687 19.4953C14.549 19.4755 14.8135 19.4494 15.0632 19.4148C15.9038 19.2985 16.6467 19.0791 17.3139 18.6325L16.0947 16.8075C15.7941 17.0084 15.4045 17.1521 14.7626 17.241C14.1031 17.3321 13.2548 17.3562 12.0664 17.3617ZM13.1681 18.4602C13.1681 18.4595 13.1676 18.4591 13.167 18.4591H10.9734C10.9734 18.4597 10.9739 18.4602 10.9745 18.4602H13.1681ZM11.8392 21.3769L13.0518 18.9507C11.9681 18.4088 10.6504 18.8479 10.1084 19.9315L9.87609 20.3959L11.8392 21.3769ZM7.91305 21.3769C8.72191 22.9944 11.0305 22.9944 11.8392 21.3769L9.87609 20.3959L7.91305 21.3769ZM6.69994 18.9507L7.91305 21.3769L9.87609 20.3959L9.64432 19.9324C9.10225 18.8483 7.78411 18.4088 6.69994 18.9507ZM6.58517 18.4591C6.58456 18.4591 6.58406 18.4595 6.58406 18.4602H8.77765C8.77826 18.4602 8.77875 18.4597 8.77875 18.4591H6.58517ZM2.43841 18.6325C3.10559 19.0791 3.84828 19.2985 4.68928 19.4148C4.93872 19.4494 5.203 19.4755 5.483 19.4953C6.69201 19.5806 7.6809 18.5737 7.68624 17.3617C6.49716 17.3562 5.64935 17.3321 4.98985 17.241C4.3479 17.1521 3.95768 17.0084 3.65777 16.8075L2.43841 18.6325ZM0.924729 17.1192C1.32493 17.7184 1.83937 18.233 2.43841 18.6325L3.65777 16.8075C3.29828 16.5683 2.98971 16.2589 2.74951 15.9L0.924729 17.1192ZM8.74279e-07 10.7788C8.74279e-07 12.2975 -0.00131457 13.5188 0.0981048 14.4954C0.19939 15.4918 0.414245 16.3555 0.924729 17.1192L2.74951 15.9C2.52016 15.5566 2.36522 15.0957 2.28149 14.2738C2.19601 13.4332 2.19469 12.3425 2.19469 10.7788H8.74279e-07ZM0.924729 4.43828C0.414245 5.20203 0.19939 6.06567 0.0981048 7.06205C-0.00131457 8.03869 8.74279e-07 9.26003 8.74279e-07 10.7788H2.19469C2.19469 9.21504 2.19601 8.12428 2.28149 7.28371C2.36522 6.4618 2.52016 6.00092 2.74951 5.65746L0.924729 4.43828ZM2.43841 2.92505C1.83937 3.32448 1.32493 3.83913 0.924729 4.43828L2.74951 5.65746C2.98971 5.29862 3.29828 4.98918 3.65777 4.74996L2.43841 2.92505ZM8.77875 2C7.26047 2 6.03902 1.99889 5.06161 2.09765C4.06588 2.19971 3.20238 2.41478 2.43841 2.92505L3.65777 4.74996C4.00091 4.52061 4.46158 4.36479 5.28382 4.28139C6.12428 4.1958 7.21471 4.19469 8.77875 4.19469V2ZM10.9734 2H8.77875V4.19469H10.9734V2ZM17.3139 2.92505C16.5501 2.41478 15.6865 2.19971 14.6901 2.09765C13.7135 1.99889 12.4922 2 10.9734 2V4.19469C12.5372 4.19469 13.6279 4.1958 14.4685 4.28139C15.2904 4.36479 15.7513 4.52061 16.0947 4.74996L17.3139 2.92505ZM18.8271 4.43828C18.4277 3.83913 17.913 3.32448 17.3139 2.92505L16.0947 4.74996C16.4536 4.98918 16.763 5.29862 17.0022 5.65746L18.8271 4.43828Z" fill="#33363F"/>
<path d="M14.2653 11.8763C14.8714 11.8763 15.3627 11.385 15.3627 10.779C15.3627 10.1729 14.8714 9.68164 14.2653 9.68164C13.6593 9.68164 13.168 10.1729 13.168 10.779C13.168 11.385 13.6593 11.8763 14.2653 11.8763Z" fill="#33363F" stroke="#33363F" stroke-linecap="round"/>
<path d="M9.87615 11.8763C10.4822 11.8763 10.9735 11.385 10.9735 10.779C10.9735 10.1729 10.4822 9.68164 9.87615 9.68164C9.27011 9.68164 8.77881 10.1729 8.77881 10.779C8.77881 11.385 9.27011 11.8763 9.87615 11.8763Z" fill="#33363F" stroke="#33363F" stroke-linecap="round"/>
<path d="M5.48699 11.8763C6.09304 11.8763 6.58434 11.385 6.58434 10.779C6.58434 10.1729 6.09304 9.68164 5.48699 9.68164C4.88095 9.68164 4.38965 10.1729 4.38965 10.779C4.38965 11.385 4.88095 11.8763 5.48699 11.8763Z" fill="#33363F" stroke="#33363F" stroke-linecap="round"/>
<path d="M17.7088 6.41767C19.2049 6.41767 20.4177 5.20488 20.4177 3.70883C20.4177 2.21279 19.2049 1 17.7088 1C16.2128 1 15 2.21279 15 3.70883C15 5.20488 16.2128 6.41767 17.7088 6.41767Z" fill="#EF0000" stroke="#EF0000"/>
</svg>
