<svg width="155" height="46" viewBox="0 0 155 46" fill="none" xmlns="http://www.w3.org/2000/svg">
<path d="M70.2503 15.758C69.7311 15.758 69.4715 15.704 69.4715 15.5958C69.4335 14.9222 68.4913 14.8004 68.2832 15.4422L68.2202 15.6364C68.1969 15.7013 67.9986 15.7337 67.6252 15.7337C67.2519 15.7337 67.0594 15.704 67.0477 15.6445L66.9621 15.3857C66.7575 14.7672 65.8474 14.8962 65.8227 15.5472C65.8169 15.6283 65.706 15.685 65.4902 15.7175C65.2743 15.7445 65.0935 15.758 64.9477 15.758C64.8077 15.758 64.6706 15.7499 64.5364 15.7337C64.2564 15.6958 64.1193 15.6283 64.1252 15.531L64.3264 10.2595C64.3264 10.1298 64.6823 10.0649 65.3939 10.0649C65.6039 10.0649 65.8606 10.0811 66.164 10.1135C66.4673 10.1406 66.6365 10.1973 66.6715 10.2839L66.6836 10.3154C67.0095 11.1649 68.2203 11.1386 68.509 10.2757C68.5615 10.1352 68.964 10.0649 69.7165 10.0649C69.9324 10.0649 70.189 10.0811 70.4865 10.1135C70.7899 10.1406 70.9415 10.1919 70.9415 10.2676L71.1953 15.5877C71.1953 15.6472 71.0815 15.6904 70.854 15.7175C70.6265 15.7445 70.4253 15.758 70.2503 15.758ZM74.9378 10.3406C75.0136 10.1514 75.387 10.0568 76.0578 10.0568C76.227 10.0568 76.4253 10.0676 76.6528 10.0892C76.8862 10.1108 76.9941 10.1379 76.9766 10.1703L76.0926 11.8168C75.4781 12.9613 75.1565 14.2401 75.1565 15.5391C75.1565 15.631 74.9961 15.6958 74.6753 15.7337C74.512 15.7553 74.3516 15.7661 74.194 15.7661C74.0365 15.7661 73.879 15.758 73.7215 15.7418C73.4007 15.704 73.2403 15.6364 73.2403 15.5391C73.2403 14.2728 72.9205 13.0271 72.3105 11.9175L71.359 10.1865C71.3357 10.1541 71.4553 10.1244 71.7178 10.0973C71.9803 10.0649 72.2019 10.0487 72.3828 10.0487C73.1003 10.0487 73.494 10.146 73.564 10.3406C73.8 10.9518 74.6568 10.973 74.9228 10.3743L74.9378 10.3406ZM80.9528 15.7661C80.4453 15.7661 80.1711 15.6904 80.1303 15.5391L80.0245 15.1558C79.9164 14.7641 79.5601 14.4929 79.1539 14.4929C78.7402 14.4929 78.3793 14.774 78.2781 15.1751L78.1965 15.4985C78.1615 15.6661 77.8815 15.7499 77.3565 15.7499C77.0765 15.7499 76.8694 15.7364 76.7352 15.7094C76.595 15.6755 76.5538 15.5659 76.593 15.4271L77.7547 11.3088C77.9724 10.5373 78.4799 10.0811 79.2815 10.0811C80.0833 10.0811 80.5882 10.5378 80.801 11.3108L81.8819 15.2372C81.9564 15.5075 81.871 15.7112 81.5916 15.7337C81.3232 15.7553 81.1103 15.7661 80.9528 15.7661ZM78.7963 13.0107C78.7324 13.2377 78.903 13.4629 79.1388 13.4629C79.3682 13.4629 79.5376 13.2491 79.4853 13.0258L79.2002 11.8103C79.1966 11.795 79.1829 11.7842 79.1672 11.7842C79.152 11.7842 79.1387 11.7943 79.1346 11.8089L78.7963 13.0107ZM87.3692 15.5715C87.3692 15.685 87.095 15.7418 86.5467 15.7418C85.9984 15.7418 85.7008 15.7013 85.6542 15.6202L85.4543 15.274C85.1084 14.6751 84.1929 14.9205 84.1929 15.612C84.1929 15.7094 83.9217 15.758 83.3791 15.758C82.8425 15.758 82.5741 15.7094 82.5741 15.612V10.1865C82.5741 10.1054 82.8046 10.0649 83.2654 10.0649C83.4462 10.0649 83.6562 10.0811 83.8954 10.1135C84.1404 10.1406 84.2892 10.1946 84.3417 10.2757L84.4966 10.5522C84.8315 11.1496 85.7417 10.9119 85.7417 10.2271C85.7417 10.1244 86.0129 10.073 86.5554 10.073C87.098 10.073 87.3692 10.1244 87.3692 10.2271V15.5715ZM94.373 15.758C93.8538 15.758 93.5942 15.704 93.5942 15.5958C93.5562 14.9222 92.614 14.8004 92.4059 15.4422L92.3429 15.6364C92.3196 15.7013 92.1213 15.7337 91.7479 15.7337C91.3746 15.7337 91.1821 15.704 91.1704 15.6445L91.0848 15.3857C90.8802 14.7672 89.9701 14.8962 89.9454 15.5472C89.9396 15.6283 89.8287 15.685 89.6129 15.7175C89.397 15.7445 89.2162 15.758 89.0704 15.758C88.9304 15.758 88.7933 15.7499 88.6591 15.7337C88.3791 15.6958 88.242 15.6283 88.2479 15.531L88.4491 10.2595C88.4491 10.1298 88.805 10.0649 89.5166 10.0649C89.7266 10.0649 89.9833 10.0811 90.2867 10.1135C90.59 10.1406 90.7592 10.1973 90.7942 10.2839L90.8063 10.3154C91.1322 11.1649 92.343 11.1386 92.6317 10.2757C92.6842 10.1352 93.0867 10.0649 93.8392 10.0649C94.0551 10.0649 94.3117 10.0811 94.6092 10.1135C94.9126 10.1406 95.0642 10.1919 95.0642 10.2676L95.318 15.5877C95.318 15.6472 95.2042 15.6904 94.9767 15.7175C94.7492 15.7445 94.548 15.758 94.373 15.758ZM100.299 15.7661C99.7915 15.7661 99.5173 15.6904 99.4765 15.5391L99.3707 15.1558C99.2626 14.7641 98.9063 14.4929 98.5001 14.4929C98.0864 14.4929 97.7255 14.774 97.6243 15.1751L97.5427 15.4985C97.5077 15.6661 97.2277 15.7499 96.7027 15.7499C96.4227 15.7499 96.2156 15.7364 96.0814 15.7094C95.9412 15.6755 95.9 15.5659 95.9392 15.4271L97.101 11.3088C97.3186 10.5372 97.8261 10.0811 98.6277 10.0811C99.4295 10.0811 99.9344 10.5378 100.147 11.3108L101.228 15.2372C101.303 15.5075 101.217 15.7112 100.938 15.7337C100.669 15.7553 100.457 15.7661 100.299 15.7661ZM98.1425 13.0107C98.0786 13.2377 98.2492 13.4629 98.485 13.4629C98.7144 13.4629 98.8838 13.2491 98.8315 13.0258L98.5464 11.8103C98.5428 11.795 98.5291 11.7842 98.5134 11.7842C98.4982 11.7842 98.4849 11.7943 98.4808 11.8089L98.1425 13.0107ZM103.591 15.6364C103.591 15.7229 103.314 15.7661 102.76 15.7661C102.2 15.7661 101.92 15.7256 101.92 15.6445V10.3568C101.92 10.1676 102.028 10.073 102.244 10.073H103.915C105.449 10.073 106.216 10.6272 106.216 11.7355C106.216 12.0707 106.146 12.3762 106.006 12.6519C105.781 13.0875 105.629 13.6369 105.895 14.0487L106.163 14.4612C106.384 14.8031 106.4 15.2271 106.059 15.4499C105.709 15.6823 105.42 15.7986 105.193 15.7986C105.075 15.7986 104.973 15.7783 104.886 15.7377C104.727 15.6632 104.648 15.4914 104.574 15.3323L103.907 13.8914C103.88 13.8329 103.821 13.7954 103.757 13.7954C103.665 13.7954 103.591 13.8695 103.591 13.9609V15.6364ZM103.775 11.5084C103.674 11.5084 103.591 11.5907 103.591 11.6922V12.6812C103.591 12.7053 103.611 12.7249 103.635 12.7249C104.189 12.7249 104.466 12.5114 104.466 12.0842C104.466 11.8896 104.411 11.7463 104.3 11.6544C104.195 11.5571 104.02 11.5084 103.775 11.5084ZM111.574 12.3275C111.685 12.3275 111.741 12.5168 111.741 12.8952C111.741 13.0088 111.726 13.1439 111.697 13.3007C111.673 13.4521 111.627 13.5278 111.557 13.5278H110.851C110.627 13.5278 110.446 13.7094 110.446 13.9333C110.446 14.1573 110.627 14.3388 110.851 14.3388H112.056C112.155 14.3388 112.222 14.4577 112.257 14.6956C112.274 14.7984 112.283 14.9092 112.283 15.0281C112.283 15.1417 112.266 15.2904 112.231 15.4742C112.196 15.658 112.137 15.7499 112.056 15.7499H109.063C108.841 15.7499 108.731 15.6661 108.731 15.4985V10.2839C108.731 10.1433 108.798 10.073 108.932 10.073H112.064C112.187 10.073 112.248 10.3136 112.248 10.7948C112.248 11.2706 112.187 11.5084 112.064 11.5084H110.855C110.629 11.5084 110.446 11.6918 110.446 11.918C110.446 12.1442 110.629 12.3275 110.855 12.3275H111.574ZM113.046 15.3769V10.5109C113.046 10.3758 113.081 10.2703 113.151 10.1946C113.227 10.1135 113.323 10.073 113.44 10.073H114.901C115.828 10.073 116.531 10.2893 117.01 10.7218C117.494 11.1543 117.736 11.8355 117.736 12.7655C117.736 14.7551 116.82 15.7499 114.988 15.7499H113.492C113.195 15.7499 113.046 15.6256 113.046 15.3769ZM114.813 11.6139C114.765 11.6139 114.726 11.6531 114.726 11.7014V14.0387C114.726 14.1523 114.735 14.2253 114.752 14.2577C114.77 14.2847 114.822 14.2982 114.91 14.2982C115.23 14.2982 115.472 14.1874 115.636 13.9657C115.805 13.7441 115.89 13.3764 115.89 12.8628C115.89 12.3438 115.802 12.0058 115.627 11.8491C115.458 11.6923 115.187 11.6139 114.813 11.6139ZM121.299 10.2352C121.299 10.1271 121.614 10.073 122.244 10.073C122.88 10.073 123.198 10.1271 123.198 10.2352V13.9576C123.198 14.5091 122.985 14.9606 122.559 15.312C122.133 15.658 121.544 15.831 120.791 15.831C120.045 15.831 119.435 15.6526 118.963 15.2958C118.496 14.9335 118.263 14.4469 118.263 13.836V10.2433C118.263 10.1352 118.578 10.0811 119.208 10.0811C119.844 10.0811 120.161 10.1352 120.161 10.2433V13.9009C120.161 14.009 120.223 14.0955 120.345 14.1604C120.474 14.2253 120.608 14.2577 120.748 14.2577C120.888 14.2577 121.013 14.228 121.124 14.1685C121.241 14.109 121.299 14.0198 121.299 13.9009V10.2352ZM126.435 10C126.86 10 127.234 10.0568 127.555 10.1703C127.881 10.2784 128.045 10.4271 128.045 10.6164C128.045 10.8056 127.966 11.0408 127.808 11.3219C127.657 11.5976 127.528 11.7355 127.423 11.7355C127.347 11.7355 127.289 11.6685 127.218 11.6431C127.175 11.6279 127.121 11.6128 127.056 11.5977C126.922 11.5598 126.805 11.5409 126.706 11.5409C126.368 11.5409 126.093 11.6517 125.883 11.8734C125.679 12.0951 125.577 12.4357 125.577 12.8952C125.577 13.3494 125.682 13.6873 125.892 13.909C126.108 14.1306 126.379 14.2415 126.706 14.2415C126.84 14.2415 126.989 14.2253 127.152 14.1928C127.321 14.155 127.441 14.1036 127.511 14.0387C127.523 14.0279 127.546 14.0225 127.581 14.0225C127.616 14.0225 127.68 14.0847 127.773 14.209C127.873 14.328 127.963 14.4875 128.045 14.6875C128.126 14.8822 128.167 15.0335 128.167 15.1417C128.167 15.3525 127.992 15.5201 127.642 15.6445C127.292 15.7688 126.878 15.831 126.4 15.831C125.63 15.831 124.997 15.5796 124.501 15.0768C124.005 14.574 123.757 13.8657 123.757 12.952C123.757 12.0329 124.011 11.3111 124.518 10.7867C125.032 10.2622 125.67 10 126.435 10ZM132.949 15.7661C132.442 15.7661 132.168 15.6904 132.127 15.5391L132.021 15.1558C131.913 14.7641 131.557 14.4929 131.151 14.4929C130.737 14.4929 130.376 14.774 130.275 15.1751L130.193 15.4985C130.158 15.6661 129.878 15.7499 129.353 15.7499C129.073 15.7499 128.866 15.7364 128.732 15.7094C128.592 15.6755 128.55 15.5659 128.59 15.4271L129.751 11.3088C129.969 10.5373 130.477 10.0811 131.278 10.0811C132.08 10.0811 132.585 10.5378 132.798 11.3108L133.879 15.2372C133.953 15.5075 133.868 15.7112 133.588 15.7337C133.32 15.7553 133.107 15.7661 132.949 15.7661ZM130.793 13.0107C130.729 13.2377 130.9 13.4629 131.135 13.4629C131.365 13.4629 131.534 13.2491 131.482 13.0258L131.197 11.8103C131.193 11.795 131.18 11.7842 131.164 11.7842C131.149 11.7842 131.135 11.7943 131.131 11.8089L130.793 13.0107ZM136.982 15.6202C136.982 15.7283 136.693 15.7824 136.116 15.7824C135.538 15.7824 135.25 15.7283 135.25 15.6202V12.599C135.25 12.0191 134.78 11.549 134.2 11.549C134.1 11.549 134.03 11.4246 133.99 11.1759C133.972 11.057 133.963 10.9353 133.963 10.811C133.963 10.6866 133.972 10.565 133.99 10.446C134.03 10.1973 134.1 10.073 134.2 10.073H138.006C138.105 10.073 138.175 10.1973 138.216 10.446C138.233 10.565 138.242 10.6866 138.242 10.811C138.242 10.9353 138.233 11.057 138.216 11.1759C138.175 11.4246 138.105 11.549 138.006 11.549C137.441 11.549 136.982 12.0073 136.982 12.5728V15.6202ZM138.714 14.355C139.048 14.355 139.318 14.0847 139.318 13.7513V12.0891C139.318 11.746 139.04 11.4679 138.697 11.4679C138.598 11.4679 138.528 11.3517 138.487 11.1192C138.469 11.0056 138.461 10.8894 138.461 10.7704C138.461 10.6515 138.469 10.5353 138.487 10.4217C138.528 10.1892 138.598 10.073 138.697 10.073H141.637C141.736 10.073 141.803 10.1892 141.838 10.4217C141.861 10.5353 141.873 10.6515 141.873 10.7704C141.873 10.8894 141.861 11.0056 141.838 11.1192C141.803 11.3517 141.736 11.4679 141.637 11.4679C141.313 11.4679 141.051 11.7304 141.051 12.0541V13.7425C141.051 14.0808 141.325 14.355 141.663 14.355C141.762 14.355 141.832 14.4713 141.873 14.7037C141.896 14.8173 141.908 14.9335 141.908 15.0525C141.908 15.1714 141.896 15.2877 141.873 15.4012C141.832 15.6337 141.762 15.7499 141.663 15.7499H138.714C138.615 15.7499 138.548 15.6337 138.513 15.4012C138.49 15.2877 138.478 15.1714 138.478 15.0525C138.478 14.9335 138.49 14.8173 138.513 14.7037C138.548 14.4713 138.615 14.355 138.714 14.355ZM145.091 15.831C144.274 15.831 143.606 15.5823 143.087 15.0849C142.574 14.5875 142.317 13.863 142.317 12.9115C142.317 11.9545 142.576 11.23 143.096 10.738C143.621 10.246 144.294 10 145.117 10C145.945 10 146.613 10.2433 147.121 10.7299C147.628 11.2111 147.882 11.9437 147.882 12.9277C147.882 13.9063 147.622 14.6362 147.103 15.1173C146.584 15.5931 145.913 15.831 145.091 15.831ZM145.099 11.5571C144.819 11.5571 144.583 11.676 144.391 11.9139C144.204 12.1518 144.111 12.487 144.111 12.9196C144.111 13.3467 144.201 13.6765 144.382 13.909C144.563 14.136 144.799 14.2496 145.091 14.2496C145.388 14.2496 145.627 14.1333 145.808 13.9009C145.995 13.6684 146.088 13.3359 146.088 12.9033C146.088 12.4708 145.992 12.1383 145.799 11.9058C145.613 11.6733 145.379 11.5571 145.099 11.5571ZM153.38 15.5715C153.38 15.685 153.105 15.7418 152.557 15.7418C152.009 15.7418 151.711 15.7013 151.665 15.6202L151.465 15.274C151.119 14.6751 150.203 14.9205 150.203 15.612C150.203 15.7094 149.932 15.758 149.39 15.758C148.853 15.758 148.585 15.7094 148.585 15.612V10.1865C148.585 10.1054 148.815 10.0649 149.276 10.0649C149.457 10.0649 149.667 10.0811 149.906 10.1135C150.151 10.1406 150.3 10.1946 150.352 10.2757L150.507 10.5522C150.842 11.1496 151.752 10.9119 151.752 10.2271C151.752 10.1244 152.023 10.073 152.566 10.073C153.108 10.073 153.38 10.1244 153.38 10.2271V15.5715Z" fill="black"/>
<path d="M66.8846 35.7299C65.4689 35.7299 64.7612 35.5856 64.7612 35.2974V21.2835C64.7612 20.7931 65.0022 20.5482 65.4846 20.5482H69.5913C71.8937 20.5482 73.5504 20.9878 74.5614 21.8674C75.5881 22.747 76.1014 24.0229 76.1014 25.6952C76.1014 27.0793 75.6191 28.3482 74.6547 29.5015C74.1724 30.0783 73.4647 30.5395 72.5314 30.8856C70.8095 31.5239 69.2647 32.8933 69.2647 34.7296V35.2757C69.2647 35.4487 68.969 35.5714 68.378 35.6434C67.8023 35.7012 67.3046 35.7299 66.8846 35.7299ZM69.7547 24.3111C69.484 24.3111 69.2647 24.5305 69.2647 24.8012V27.4248C69.2647 27.5923 69.4005 27.7281 69.568 27.7281C70.1123 27.7281 70.5713 27.5696 70.9447 27.2523C71.318 26.935 71.5047 26.4883 71.5047 25.9115C71.5047 25.3347 71.3723 24.9238 71.108 24.6788C70.859 24.4338 70.408 24.3111 69.7547 24.3111ZM87.4256 35.9029C85.2479 35.9029 83.4665 35.2396 82.0822 33.9133C80.7131 32.587 80.0288 30.6548 80.0288 28.1174C80.0288 25.5655 80.7211 23.6336 82.1055 22.3215C83.5055 21.0094 85.3022 20.3535 87.4956 20.3535C89.7046 20.3535 91.4857 21.0023 92.839 22.2999C94.1924 23.5829 94.869 25.5368 94.869 28.1606C94.869 30.7703 94.1767 32.7167 92.7923 33.9998C91.408 35.2686 89.6189 35.9029 87.4256 35.9029ZM87.4489 24.5058C86.7022 24.5058 86.0722 24.8231 85.5589 25.4573C85.0612 26.0916 84.8122 26.9857 84.8122 28.139C84.8122 29.2781 85.0532 30.1574 85.5356 30.7774C86.0179 31.383 86.6479 31.6857 87.4256 31.6857C88.2189 31.6857 88.8566 31.3759 89.339 30.7558C89.8366 30.1357 90.0856 29.2491 90.0856 28.0958C90.0856 26.9425 89.829 26.0558 89.3156 25.4357C88.8179 24.8156 88.1956 24.5058 87.4489 24.5058ZM103.533 35.3839C103.533 35.6146 102.794 35.7299 101.316 35.7299C99.8227 35.7299 99.076 35.6217 99.076 35.4055V21.3051C99.076 20.8006 99.3637 20.5482 99.9394 20.5482H104.396C108.487 20.5482 110.533 22.0258 110.533 24.9816C110.533 25.8753 110.346 26.69 109.973 27.4253C109.371 28.5868 108.967 30.0519 109.677 31.1499L110.389 32.25C110.98 33.1617 111.022 34.2924 110.113 34.8864C109.18 35.5065 108.41 35.8164 107.803 35.8164C107.488 35.8164 107.215 35.7621 106.984 35.6534C106.562 35.4549 106.351 34.9976 106.155 34.5743L104.375 30.7306C104.302 30.5745 104.146 30.4747 103.974 30.4747C103.73 30.4747 103.533 30.6723 103.533 30.916V35.3839ZM104.023 24.376C103.752 24.376 103.533 24.5954 103.533 24.866V27.5033C103.533 27.5677 103.585 27.62 103.649 27.62C105.127 27.62 105.866 27.0506 105.866 25.9115C105.866 25.3925 105.718 25.0103 105.423 24.7653C105.143 24.5058 104.676 24.376 104.023 24.376ZM122.196 35.3406C122.196 35.6288 121.426 35.7731 119.886 35.7731C118.346 35.7731 117.576 35.6288 117.576 35.3406V27.2842C117.576 25.7378 116.322 24.4842 114.776 24.4842C114.511 24.4842 114.325 24.1527 114.216 23.4893C114.169 23.172 114.146 22.8476 114.146 22.5162C114.146 22.1847 114.169 21.8603 114.216 21.543C114.325 20.8796 114.511 20.5482 114.776 20.5482H124.926C125.19 20.5482 125.377 20.8796 125.486 21.543C125.532 21.8603 125.556 22.1847 125.556 22.5162C125.556 22.8476 125.532 23.172 125.486 23.4893C125.377 24.1527 125.19 24.4842 124.926 24.4842C123.418 24.4842 122.196 25.7064 122.196 27.2142V35.3406ZM139.593 35.7299C138.24 35.7299 137.508 35.5281 137.4 35.1243L137.117 34.1022C136.829 33.0579 135.879 32.3345 134.796 32.3345C133.692 32.3345 132.73 33.0841 132.46 34.1538L132.243 35.0162C132.149 35.4633 131.403 35.6866 130.003 35.6866C129.256 35.6866 128.704 35.6505 128.346 35.5785C127.972 35.4881 127.862 35.196 127.967 34.8257L131.564 22.0743C131.813 21.1908 132.38 20.6173 133.298 20.5908C133.781 20.5768 134.394 20.5698 135.136 20.5698C135.895 20.5698 136.518 20.5771 137.007 20.5917C137.903 20.6186 138.453 21.181 138.692 22.0457L142.071 34.3194C142.269 35.0402 142.041 35.5832 141.296 35.6434C140.581 35.7012 140.013 35.7299 139.593 35.7299ZM133.842 28.382C133.672 28.9874 134.127 29.588 134.756 29.588C135.367 29.588 135.819 29.0179 135.679 28.4224L134.919 25.181C134.91 25.1402 134.873 25.1113 134.831 25.1113C134.791 25.1113 134.755 25.1382 134.744 25.1772L133.842 28.382ZM146.016 34.4107V20.9591C146.016 20.6563 146.802 20.5049 148.373 20.5049C149.959 20.5049 150.753 20.6563 150.753 20.9591V27.9626C150.753 29.9472 152.361 31.556 154.346 31.556C154.626 31.556 154.82 31.8949 154.929 32.5724C154.976 32.9039 154.999 33.2428 154.999 33.5889C154.999 33.9349 154.976 34.288 154.929 34.6486C154.805 35.3406 154.603 35.6866 154.323 35.6866H147.136C146.794 35.6866 146.522 35.5569 146.319 35.2974C146.117 35.0378 146.016 34.7422 146.016 34.4107Z" fill="black"/>
<path d="M31.2998 36.71C31.2998 36.71 31.3007 24.0704 31.2998 18.0914C31.2989 12.1123 37.9447 9.00019 41.3902 9C44.8357 8.99981 50.9884 12.1031 50.9884 18.0914C50.9884 24.0796 50.9884 36.71 50.9884 36.71" stroke="#A421BA" stroke-width="9" stroke-linecap="round"/>
<g filter="url(#filter0_d_684_2985)">
<path d="M30.8643 35.9999V19.458C31.132 14.4488 28.9928 12.4784 28.0996 11.5" stroke="#FFA217" stroke-width="8" stroke-linecap="round" shape-rendering="crispEdges"/>
</g>
<path d="M11.5996 36.71C11.5996 36.71 11.6005 24.0704 11.5996 18.0914C11.5987 12.1123 18.2445 9.00019 21.69 9C25.1355 8.99981 31.2882 12.1031 31.2882 18.0914C31.2882 24.0796 31.2882 36.71 31.2882 36.71" stroke="#FF0069" stroke-width="9" stroke-linecap="round"/>
<g filter="url(#filter1_d_684_2985)">
<path d="M11.5629 36.71V17.2126C11.5629 13.1572 9.08356 8.22819 5 9.10167" stroke="#FFA217" stroke-width="9" stroke-linecap="round" shape-rendering="crispEdges"/>
</g>
<defs>
<filter id="filter0_d_684_2985" x="24.0996" y="3.5" width="18.7876" height="40.5" filterUnits="userSpaceOnUse" color-interpolation-filters="sRGB">
<feFlood flood-opacity="0" result="BackgroundImageFix"/>
<feColorMatrix in="SourceAlpha" type="matrix" values="0 0 0 0 0 0 0 0 0 0 0 0 0 0 0 0 0 0 127 0" result="hardAlpha"/>
<feOffset dx="4"/>
<feGaussianBlur stdDeviation="2"/>
<feComposite in2="hardAlpha" operator="out"/>
<feColorMatrix type="matrix" values="0 0 0 0 0 0 0 0 0 0 0 0 0 0 0 0 0 0 0.25 0"/>
<feBlend mode="normal" in2="BackgroundImageFix" result="effect1_dropShadow_684_2985"/>
<feBlend mode="normal" in="SourceGraphic" in2="effect1_dropShadow_684_2985" result="shape"/>
</filter>
<filter id="filter1_d_684_2985" x="0.499023" y="0.494141" width="23.564" height="44.7158" filterUnits="userSpaceOnUse" color-interpolation-filters="sRGB">
<feFlood flood-opacity="0" result="BackgroundImageFix"/>
<feColorMatrix in="SourceAlpha" type="matrix" values="0 0 0 0 0 0 0 0 0 0 0 0 0 0 0 0 0 0 127 0" result="hardAlpha"/>
<feOffset dx="4"/>
<feGaussianBlur stdDeviation="2"/>
<feComposite in2="hardAlpha" operator="out"/>
<feColorMatrix type="matrix" values="0 0 0 0 0 0 0 0 0 0 0 0 0 0 0 0 0 0 0.25 0"/>
<feBlend mode="normal" in2="BackgroundImageFix" result="effect1_dropShadow_684_2985"/>
<feBlend mode="normal" in="SourceGraphic" in2="effect1_dropShadow_684_2985" result="shape"/>
</filter>
</defs>
</svg>
