<svg width="94" height="35" viewBox="0 0 94 35" fill="none" xmlns="http://www.w3.org/2000/svg">
<path d="M41.1772 11.1426C40.8536 11.1426 40.6918 11.1037 40.6918 11.0259L40.5773 8.68623L39.9119 11.0551C39.8973 11.1018 39.7737 11.1251 39.541 11.1251C39.3083 11.1251 39.1883 11.1037 39.1811 11.0609L38.4939 8.66289L38.4175 10.9909C38.4139 11.0493 38.3448 11.0901 38.2103 11.1135C38.0758 11.1329 37.963 11.1426 37.8721 11.1426C37.7849 11.1426 37.6994 11.1368 37.6158 11.1251C37.4413 11.0979 37.3559 11.0493 37.3595 10.9793L37.4849 7.18671C37.4849 7.09336 37.7067 7.04668 38.1503 7.04668C38.2812 7.04668 38.4412 7.05835 38.6302 7.08169C38.8193 7.10114 38.9247 7.14198 38.9466 7.20422L39.5574 9.04214L40.0919 7.19838C40.1246 7.09725 40.3755 7.04668 40.8445 7.04668C40.979 7.04668 41.139 7.05835 41.3244 7.08169C41.5135 7.10114 41.608 7.13809 41.608 7.19255L41.7662 11.0201C41.7662 11.0629 41.6953 11.094 41.5535 11.1135C41.4117 11.1329 41.2863 11.1426 41.1772 11.1426ZM44.0989 7.24506C44.1461 7.10892 44.3788 7.04084 44.797 7.04084C44.9024 7.04084 45.026 7.04862 45.1678 7.06418C45.3132 7.07974 45.3805 7.09919 45.3696 7.12253L44.2352 9.56143V10.9851C44.2352 11.0512 44.1352 11.0979 43.9353 11.1251C43.8334 11.1407 43.7335 11.1485 43.6353 11.1485C43.5371 11.1485 43.4389 11.1426 43.3408 11.131C43.1408 11.1037 43.0408 11.0551 43.0408 10.9851V9.59644L41.8682 7.1342C41.8537 7.11086 41.9282 7.08947 42.0918 7.07002C42.2555 7.04668 42.3936 7.03501 42.5063 7.03501C42.9536 7.03501 43.199 7.10503 43.2426 7.24506L43.6407 8.43534L44.0989 7.24506ZM47.8479 11.1485C47.5316 11.1485 47.3607 11.094 47.3353 10.9851L47.1553 10.2324H46.2881L46.13 10.9559C46.1082 11.0765 45.9336 11.1368 45.6064 11.1368C45.4319 11.1368 45.3028 11.1271 45.2192 11.1076C45.1355 11.0843 45.0937 11.0668 45.0937 11.0551L46.0591 7.10503C46.0591 7.07391 46.3081 7.05835 46.8062 7.05835C47.3044 7.05835 47.5534 7.07391 47.5534 7.10503L48.4969 11.0609C48.4969 11.0882 48.4133 11.1096 48.2461 11.1251C48.0788 11.1407 47.9461 11.1485 47.8479 11.1485ZM46.4245 9.49141H46.9971L46.7517 8.28364H46.719L46.4245 9.49141ZM51.8472 11.0084C51.8472 11.0901 51.6763 11.131 51.3345 11.131C50.9928 11.131 50.8073 11.1018 50.7782 11.0434L49.8675 9.22302V11.0376C49.8675 11.1076 49.6984 11.1426 49.3602 11.1426C49.0257 11.1426 48.8585 11.1076 48.8585 11.0376V7.1342C48.8585 7.07585 49.0021 7.04668 49.2893 7.04668C49.4021 7.04668 49.533 7.05835 49.682 7.08169C49.8347 7.10114 49.9275 7.14003 49.9602 7.19838L50.8328 8.99547V7.16337C50.8328 7.08947 51.0019 7.05251 51.34 7.05251C51.6781 7.05251 51.8472 7.08947 51.8472 7.16337V11.0084ZM56.2126 11.1426C55.889 11.1426 55.7272 11.1037 55.7272 11.0259L55.6126 8.68623L54.9473 11.0551C54.9327 11.1018 54.8091 11.1251 54.5764 11.1251C54.3437 11.1251 54.2237 11.1037 54.2165 11.0609L53.5293 8.66289L53.4529 10.9909C53.4493 11.0493 53.3802 11.0901 53.2457 11.1135C53.1111 11.1329 52.9984 11.1426 52.9075 11.1426C52.8203 11.1426 52.7348 11.1368 52.6512 11.1251C52.4767 11.0979 52.3912 11.0493 52.3949 10.9793L52.5203 7.18671C52.5203 7.09336 52.7421 7.04668 53.1857 7.04668C53.3166 7.04668 53.4765 7.05835 53.6656 7.08169C53.8547 7.10114 53.9601 7.14198 53.9819 7.20422L54.5928 9.04214L55.1272 7.19838C55.16 7.09725 55.4109 7.04668 55.8799 7.04668C56.0144 7.04668 56.1744 7.05835 56.3598 7.08169C56.5489 7.10114 56.6434 7.13809 56.6434 7.19255L56.8016 11.0201C56.8016 11.0629 56.7307 11.094 56.5889 11.1135C56.4471 11.1329 56.3216 11.1426 56.2126 11.1426ZM59.9062 11.1485C59.5899 11.1485 59.419 11.094 59.3935 10.9851L59.2135 10.2324H58.3464L58.1882 10.9559C58.1664 11.0765 57.9919 11.1368 57.6647 11.1368C57.4901 11.1368 57.3611 11.1271 57.2774 11.1076C57.1938 11.0843 57.152 11.0668 57.152 11.0551L58.1173 7.10503C58.1173 7.07391 58.3664 7.05835 58.8645 7.05835C59.3626 7.05835 59.6117 7.07391 59.6117 7.10503L60.5552 11.0609C60.5552 11.0882 60.4716 11.1096 60.3043 11.1251C60.1371 11.1407 60.0044 11.1485 59.9062 11.1485ZM58.4827 9.49141H59.0554L58.81 8.28364H58.7772L58.4827 9.49141ZM61.9582 11.0551C61.9582 11.1173 61.7855 11.1485 61.4401 11.1485C61.091 11.1485 60.9165 11.1193 60.9165 11.0609V7.25673C60.9165 7.12058 60.9838 7.05251 61.1183 7.05251H62.16C63.1162 7.05251 63.5944 7.45122 63.5944 8.24862C63.5944 8.48979 63.5507 8.70957 63.4635 8.90795C63.3762 9.10244 63.2526 9.25803 63.0926 9.37472L63.7798 10.6C63.7507 10.6934 63.6562 10.8003 63.4962 10.9209C63.278 11.0882 63.0981 11.1718 62.9563 11.1718C62.8145 11.1718 62.709 11.1173 62.6399 11.0084L62.1273 9.73064H61.9582V11.0551ZM61.9582 8.08525V8.96046H61.9855C62.3309 8.96046 62.5036 8.80681 62.5036 8.49952C62.5036 8.35948 62.4691 8.25641 62.4 8.19028C62.3345 8.12026 62.2255 8.08525 62.0727 8.08525H61.9582ZM66.9339 8.67456C67.003 8.67456 67.0376 8.8107 67.0376 9.08299C67.0376 9.16467 67.0285 9.26192 67.0103 9.37472C66.9958 9.48364 66.9667 9.53809 66.923 9.53809H66.2304V10.1216H67.2339C67.2957 10.1216 67.3375 10.2071 67.3593 10.3783C67.3703 10.4522 67.3757 10.5319 67.3757 10.6175C67.3757 10.6992 67.3648 10.8062 67.343 10.9384C67.3212 11.0707 67.2848 11.1368 67.2339 11.1368H65.3687C65.2305 11.1368 65.1614 11.0765 65.1614 10.9559V7.20422C65.1614 7.10308 65.2033 7.05251 65.2869 7.05251H67.2394C67.3157 7.05251 67.3539 7.22561 67.3539 7.5718C67.3539 7.9141 67.3157 8.08525 67.2394 8.08525H66.2304V8.67456H66.9339ZM67.8511 10.8684V7.36759C67.8511 7.27034 67.8729 7.19449 67.9166 7.14003C67.9638 7.08169 68.0238 7.05251 68.0965 7.05251H69.0073C69.5854 7.05251 70.0236 7.2081 70.3217 7.51929C70.6235 7.83047 70.7744 8.32059 70.7744 8.98963C70.7744 10.4211 70.2035 11.1368 69.0619 11.1368H68.1292C67.9438 11.1368 67.8511 11.0473 67.8511 10.8684ZM68.8982 8.1611V9.90568C68.8982 9.98737 68.9037 10.0399 68.9146 10.0632C68.9255 10.0827 68.9582 10.0924 69.0128 10.0924C69.2127 10.0924 69.3636 10.0126 69.4654 9.85317C69.5709 9.69368 69.6236 9.42918 69.6236 9.05965C69.6236 8.68623 69.5691 8.44311 69.46 8.33031C69.3546 8.21751 69.1855 8.1611 68.9528 8.1611H68.8982ZM72.9952 7.16921C72.9952 7.09141 73.1916 7.05251 73.5842 7.05251C73.9806 7.05251 74.1787 7.09141 74.1787 7.16921V9.84733C74.1787 10.2441 74.046 10.5689 73.7806 10.8217C73.5152 11.0707 73.1479 11.1951 72.6789 11.1951C72.2135 11.1951 71.8336 11.0668 71.539 10.8101C71.2482 10.5494 71.1027 10.1994 71.1027 9.75981V7.17504C71.1027 7.09725 71.2991 7.05835 71.6918 7.05835C72.0881 7.05835 72.2862 7.09725 72.2862 7.17504V9.80649C72.2862 9.88428 72.3244 9.94652 72.4008 9.9932C72.4807 10.0399 72.5644 10.0632 72.6516 10.0632C72.7389 10.0632 72.8171 10.0418 72.8861 9.99904C72.9589 9.95625 72.9952 9.89206 72.9952 9.80649V7.16921ZM76.1962 7C76.4616 7 76.6943 7.04085 76.8943 7.12253C77.0979 7.20033 77.1997 7.3073 77.1997 7.44344C77.1997 7.57958 77.1506 7.74879 77.0524 7.95106C76.9579 8.14944 76.8779 8.24862 76.8125 8.24862C76.7943 8.24862 76.7725 8.2389 76.747 8.21945C76.7252 8.19611 76.6707 8.17278 76.5834 8.14944C76.4998 8.12221 76.4271 8.10859 76.3653 8.10859C76.1544 8.10859 75.9835 8.18833 75.8526 8.34782C75.7253 8.5073 75.6617 8.75235 75.6617 9.08299C75.6617 9.40973 75.7271 9.65284 75.858 9.81232C75.9926 9.97181 76.1616 10.0515 76.3653 10.0515C76.4489 10.0515 76.5416 10.0399 76.6434 10.0165C76.7488 9.98931 76.8234 9.95236 76.867 9.90568C76.8743 9.8979 76.8888 9.89401 76.9106 9.89401C76.9325 9.89401 76.9725 9.93874 77.0306 10.0282C77.0924 10.1138 77.1488 10.2285 77.1997 10.3725C77.2506 10.5125 77.276 10.6214 77.276 10.6992C77.276 10.8509 77.167 10.9715 76.9488 11.0609C76.7307 11.1504 76.4725 11.1951 76.1744 11.1951C75.6944 11.1951 75.2999 11.0143 74.9909 10.6525C74.6818 10.2908 74.5273 9.78121 74.5273 9.12383C74.5273 8.46256 74.6855 7.94328 75.0018 7.56597C75.3217 7.18866 75.7199 7 76.1962 7ZM80.2568 11.1485C79.9405 11.1485 79.7696 11.094 79.7441 10.9851L79.5642 10.2324H78.697L78.5388 10.9559C78.517 11.0765 78.3425 11.1368 78.0153 11.1368C77.8407 11.1368 77.7117 11.1271 77.628 11.1076C77.5444 11.0843 77.5026 11.0668 77.5026 11.0551L78.4679 7.10503C78.4679 7.07391 78.717 7.05835 79.2151 7.05835C79.7132 7.05835 79.9623 7.07391 79.9623 7.10503L80.9058 11.0609C80.9058 11.0882 80.8222 11.1096 80.6549 11.1251C80.4877 11.1407 80.355 11.1485 80.2568 11.1485ZM78.8334 9.49141H79.406L79.1606 8.28364H79.1279L78.8334 9.49141ZM82.7704 11.0434C82.7704 11.1212 82.5904 11.1601 82.2304 11.1601C81.8705 11.1601 81.6905 11.1212 81.6905 11.0434V8.11443H81.036C80.9742 8.11443 80.9306 8.02496 80.9051 7.84603C80.8942 7.76046 80.8888 7.67294 80.8888 7.58347C80.8888 7.49401 80.8942 7.40649 80.9051 7.32091C80.9306 7.14198 80.9742 7.05251 81.036 7.05251H83.4085C83.4703 7.05251 83.5139 7.14198 83.5394 7.32091C83.5503 7.40649 83.5557 7.49401 83.5557 7.58347C83.5557 7.67294 83.5503 7.76046 83.5394 7.84603C83.5139 8.02496 83.4703 8.11443 83.4085 8.11443H82.7704V11.0434ZM84.2263 10.1332V8.05608H83.8391C83.7773 8.05608 83.7336 7.97245 83.7082 7.80519C83.6973 7.7235 83.6918 7.63987 83.6918 7.5543C83.6918 7.46872 83.6973 7.38509 83.7082 7.3034C83.7336 7.13614 83.7773 7.05251 83.8391 7.05251H85.6716C85.7334 7.05251 85.7752 7.13614 85.797 7.3034C85.8116 7.38509 85.8188 7.46872 85.8188 7.5543C85.8188 7.63987 85.8116 7.7235 85.797 7.80519C85.7752 7.97245 85.7334 8.05608 85.6716 8.05608H85.3062V10.1332H85.6879C85.7498 10.1332 85.7934 10.2169 85.8188 10.3841C85.8334 10.4658 85.8407 10.5494 85.8407 10.635C85.8407 10.7206 85.8334 10.8042 85.8188 10.8859C85.7934 11.0532 85.7498 11.1368 85.6879 11.1368H83.85C83.7882 11.1368 83.7464 11.0532 83.7246 10.8859C83.71 10.8042 83.7027 10.7206 83.7027 10.635C83.7027 10.5494 83.71 10.4658 83.7246 10.3841C83.7464 10.2169 83.7882 10.1332 83.85 10.1332H84.2263ZM87.8243 11.1951C87.3152 11.1951 86.8989 11.0162 86.5753 10.6584C86.2554 10.3005 86.0954 9.77926 86.0954 9.09466C86.0954 8.40616 86.2572 7.88493 86.5808 7.53096C86.908 7.17699 87.328 7 87.8406 7C88.3569 7 88.7732 7.17504 89.0896 7.52512C89.4059 7.87131 89.5641 8.39838 89.5641 9.10632C89.5641 9.81038 89.4023 10.3355 89.0787 10.6817C88.7551 11.024 88.3369 11.1951 87.8243 11.1951ZM87.8297 8.12026C87.6552 8.12026 87.5079 8.20584 87.388 8.37699C87.2716 8.54814 87.2134 8.78931 87.2134 9.10049C87.2134 9.40778 87.2698 9.64506 87.3825 9.81232C87.4952 9.9757 87.6425 10.0574 87.8243 10.0574C88.0097 10.0574 88.1588 9.97375 88.2715 9.80649C88.3878 9.63923 88.446 9.40001 88.446 9.08882C88.446 8.77764 88.386 8.53841 88.266 8.37115C88.1497 8.20389 88.0042 8.12026 87.8297 8.12026ZM92.9907 11.0084C92.9907 11.0901 92.8198 11.131 92.478 11.131C92.1362 11.131 91.9508 11.1018 91.9217 11.0434L91.0109 9.22302V11.0376C91.0109 11.1076 90.8418 11.1426 90.5037 11.1426C90.1692 11.1426 90.002 11.1076 90.002 11.0376V7.1342C90.002 7.07585 90.1456 7.04668 90.4328 7.04668C90.5455 7.04668 90.6764 7.05835 90.8255 7.08169C90.9782 7.10114 91.0709 7.14003 91.1036 7.19838L91.9762 8.99547V7.16337C91.9762 7.08947 92.1453 7.05251 92.4835 7.05251C92.8216 7.05251 92.9907 7.08947 92.9907 7.16337V11.0084Z" fill="black"/>
<path d="M39.0793 25.5118C38.1969 25.5118 37.7559 25.408 37.7559 25.2006V15.1183C37.7559 14.7655 37.9061 14.5893 38.2067 14.5893H40.7664C42.2014 14.5893 43.234 14.9055 43.8642 15.5384C44.5041 16.1712 44.8241 17.0892 44.8241 18.2923C44.8241 19.2881 44.5234 20.201 43.9224 21.0308C43.6217 21.4457 43.1806 21.7776 42.5989 22.0265C42.0171 22.2755 41.3384 22.4 40.5628 22.4V25.1851C40.5628 25.3095 40.3785 25.3978 40.0101 25.4496C39.6513 25.4911 39.3411 25.5118 39.0793 25.5118ZM40.5628 17.2965V19.7549H40.7519C41.0911 19.7549 41.3772 19.6409 41.6099 19.4126C41.8426 19.1843 41.959 18.8629 41.959 18.4479C41.959 18.0329 41.8765 17.7373 41.7117 17.5611C41.5565 17.3848 41.2754 17.2965 40.8682 17.2965H40.5628ZM51.8823 25.6363C50.5249 25.6363 49.4146 25.159 48.5518 24.2048C47.6985 23.2506 47.2719 21.8605 47.2719 20.035C47.2719 18.199 47.7035 16.8091 48.5663 15.8651C49.4389 14.9211 50.5588 14.4492 51.9259 14.4492C53.3028 14.4492 54.4129 14.916 55.2564 15.8495C56.0999 16.7726 56.5217 18.1783 56.5217 20.0661C56.5217 21.9436 56.0902 23.344 55.2273 24.2671C54.3645 25.1799 53.2494 25.6363 51.8823 25.6363ZM51.8968 17.4366C51.4314 17.4366 51.0387 17.6649 50.7188 18.1212C50.4086 18.5775 50.2534 19.2208 50.2534 20.0505C50.2534 20.8701 50.4036 21.5026 50.7042 21.9487C51.0049 22.3844 51.3976 22.6022 51.8823 22.6022C52.3767 22.6022 52.7742 22.3793 53.0749 21.9332C53.385 21.4871 53.5402 20.8491 53.5402 20.0194C53.5402 19.1897 53.3803 18.5517 53.0603 18.1056C52.7501 17.6595 52.3622 17.4366 51.8968 17.4366ZM61.9217 25.2629C61.9217 25.4289 61.4611 25.5118 60.54 25.5118C59.6092 25.5118 59.1439 25.434 59.1439 25.2784V15.1338C59.1439 14.7709 59.3232 14.5893 59.682 14.5893H62.4598C65.0097 14.5893 66.2848 15.6524 66.2848 17.7789C66.2848 18.4219 66.1684 19.0081 65.9357 19.5371C65.703 20.0556 65.3733 20.4706 64.9468 20.7818L66.7793 24.0492C66.7015 24.2982 66.4495 24.5834 66.023 24.905C65.4413 25.3511 64.9613 25.574 64.5832 25.574C64.205 25.574 63.9237 25.4289 63.7396 25.1384L62.3725 21.7309H61.9217V25.2629ZM61.9217 17.3432V19.6771H61.9944C62.9154 19.6771 63.3761 19.2675 63.3761 18.4479C63.3761 18.0745 63.2838 17.7995 63.0997 17.6233C62.9252 17.4366 62.6343 17.3432 62.2271 17.3432H61.9217ZM73.5541 25.2317C73.5541 25.4391 73.0742 25.5429 72.1143 25.5429C71.1544 25.5429 70.6745 25.4391 70.6745 25.2317V17.421H68.9292C68.7645 17.421 68.6481 17.1825 68.5802 16.7053C68.5511 16.477 68.5365 16.2436 68.5365 16.0051C68.5365 15.7666 68.5511 15.5333 68.5802 15.305C68.6481 14.8277 68.7645 14.5893 68.9292 14.5893H75.2557C75.4207 14.5893 75.537 14.8277 75.6047 15.305C75.6338 15.5333 75.6484 15.7666 75.6484 16.0051C75.6484 16.2436 75.6338 16.477 75.6047 16.7053C75.537 17.1825 75.4207 17.421 75.2557 17.421H73.5541V25.2317ZM84.3975 25.5118C83.554 25.5118 83.0981 25.3667 83.0304 25.0761L82.5505 23.069H80.238L79.8163 24.9983C79.7581 25.32 79.2927 25.4807 78.4201 25.4807C77.9547 25.4807 77.6104 25.4547 77.3875 25.4029C77.1643 25.3406 77.053 25.294 77.053 25.2629L79.6272 14.7293C79.6272 14.6464 80.2912 14.6048 81.6197 14.6048C82.9479 14.6048 83.6121 14.6464 83.6121 14.7293L86.1282 25.2784C86.1282 25.3511 85.905 25.408 85.4592 25.4496C85.0131 25.4911 84.6593 25.5118 84.3975 25.5118ZM80.6016 21.093H82.1287L81.4742 17.8722H81.387L80.6016 21.093ZM88.4009 24.5627V14.8849C88.4009 14.667 88.8906 14.5581 89.8698 14.5581C90.8587 14.5581 91.3532 14.667 91.3532 14.8849V22.5089H93.5929C93.7675 22.5089 93.8886 22.7527 93.9565 23.2402C93.9856 23.4786 94.0002 23.7225 94.0002 23.9714C94.0002 24.2204 93.9856 24.4744 93.9565 24.7338C93.879 25.2317 93.7529 25.4807 93.5784 25.4807H89.099C88.8856 25.4807 88.7161 25.3873 88.5899 25.2006C88.4638 25.0139 88.4009 24.8012 88.4009 24.5627Z" fill="black"/>
<path d="M19.3613 27.1823C19.3613 27.1823 19.362 18.0891 19.3613 13.7875C19.3606 9.48613 23.5028 7.24731 25.6503 7.24707C27.7978 7.24683 31.6325 9.47957 31.6325 13.7875C31.6325 18.0957 31.6325 27.1823 31.6325 27.1823" stroke="#A421BA" stroke-width="6" stroke-linecap="round"/>
<g filter="url(#filter0_d_744_2575)">
<path d="M7.09082 27.1823C7.09082 27.1823 7.0915 18.0891 7.09082 13.7875C7.09014 9.48613 11.2323 7.24731 13.3798 7.24707C15.5273 7.24683 19.362 9.47957 19.362 13.7875C19.362 18.0957 19.362 27.1823 19.362 27.1823" stroke="#FF0069" stroke-width="6" stroke-linecap="round"/>
</g>
<g filter="url(#filter1_d_744_2575)">
<path d="M7.09039 27.1822V13.1554C7.09039 10.2378 5.54513 6.69178 3 7.32022" stroke="#FFA217" stroke-width="6" stroke-linecap="round"/>
</g>
<defs>
<filter id="filter0_d_744_2575" x="4.09082" y="0.24707" width="26.271" height="33.9355" filterUnits="userSpaceOnUse" color-interpolation-filters="sRGB">
<feFlood flood-opacity="0" result="BackgroundImageFix"/>
<feColorMatrix in="SourceAlpha" type="matrix" values="0 0 0 0 0 0 0 0 0 0 0 0 0 0 0 0 0 0 127 0" result="hardAlpha"/>
<feOffset dx="4"/>
<feGaussianBlur stdDeviation="2"/>
<feComposite in2="hardAlpha" operator="out"/>
<feColorMatrix type="matrix" values="0 0 0 0 0 0 0 0 0 0 0 0 0 0 0 0 0 0 0.25 0"/>
<feBlend mode="normal" in2="BackgroundImageFix" result="effect1_dropShadow_744_2575"/>
<feBlend mode="normal" in="SourceGraphic" in2="effect1_dropShadow_744_2575" result="shape"/>
</filter>
<filter id="filter1_d_744_2575" x="-0.000488281" y="0.239258" width="18.0908" height="33.9434" filterUnits="userSpaceOnUse" color-interpolation-filters="sRGB">
<feFlood flood-opacity="0" result="BackgroundImageFix"/>
<feColorMatrix in="SourceAlpha" type="matrix" values="0 0 0 0 0 0 0 0 0 0 0 0 0 0 0 0 0 0 127 0" result="hardAlpha"/>
<feOffset dx="4"/>
<feGaussianBlur stdDeviation="2"/>
<feComposite in2="hardAlpha" operator="out"/>
<feColorMatrix type="matrix" values="0 0 0 0 0 0 0 0 0 0 0 0 0 0 0 0 0 0 0.25 0"/>
<feBlend mode="normal" in2="BackgroundImageFix" result="effect1_dropShadow_744_2575"/>
<feBlend mode="normal" in="SourceGraphic" in2="effect1_dropShadow_744_2575" result="shape"/>
</filter>
</defs>
</svg>
