<svg width="20" height="22" viewBox="0 0 20 22" fill="none" xmlns="http://www.w3.org/2000/svg">
<path fill-rule="evenodd" clip-rule="evenodd" d="M11.8189 1.6075C12.1507 1.03836 11.9764 0.246541 11.3291 0.124153C10.8978 0.0426113 10.4535 0 10 0C6.36366 0 3.30808 2.73376 2.90717 6.34843L2.63417 8.80371L2.62762 8.86224C2.50518 9.92735 2.15849 10.9556 1.61022 11.8766L1.57987 11.9275L0.953583 12.971L0.927593 13.0143C0.665378 13.451 0.429148 13.8454 0.270952 14.1813C0.110589 14.5215 -0.0616715 14.9842 0.0217606 15.5075C0.103026 16.0244 0.369552 16.4946 0.770459 16.8316C1.17678 17.1718 1.66116 17.2618 2.03606 17.2997C2.40554 17.3365 2.86603 17.3365 3.37421 17.3365H3.42513H16.5749H16.6258C17.134 17.3365 17.5945 17.3365 17.9639 17.2997C18.3378 17.2618 18.8222 17.1718 19.2285 16.8316C19.6305 16.4946 19.897 16.0244 19.9782 15.5075C20.0617 14.9842 19.8894 14.5215 19.729 14.1813C19.5709 13.8454 19.3335 13.451 19.0724 13.0143L19.0464 12.971L18.4201 11.9275L18.3898 11.8766C18.1525 11.4784 17.9531 11.0602 17.7933 10.6276C17.5976 10.0981 17.0657 9.7518 16.5012 9.7518C15.9198 9.7518 15.4011 10.2472 15.5684 10.804C15.7971 11.5653 16.1185 12.2982 16.5272 12.9851L16.5619 13.0425L17.1881 14.0859C17.4839 14.58 17.6627 14.8802 17.7689 15.1045C17.7767 15.1216 17.765 15.142 17.7462 15.1435C17.5002 15.1684 17.1502 15.1695 16.5749 15.1695H3.42513C2.84977 15.1695 2.49976 15.1684 2.25271 15.1435C2.23444 15.142 2.2235 15.1211 2.23109 15.1045C2.33727 14.8802 2.51607 14.58 2.81187 14.0859L3.43809 13.0425L3.47281 12.9851C4.17711 11.7997 4.62349 10.4788 4.7806 9.10924L4.78821 9.04318L5.06127 6.5879C5.34083 4.07085 7.46778 2.16707 10 2.16707C10.2069 2.16707 10.411 2.17978 10.6116 2.20452C11.0898 2.26347 11.5762 2.02373 11.8189 1.6075ZM16.5793 4.36927C16.0749 3.17 14.3341 3.0331 14.3341 4.33413C14.3341 4.34922 14.3343 4.36427 14.3346 4.37927C14.3401 4.65567 14.4532 4.91224 14.5627 5.16604C14.6729 5.42104 14.7838 5.68413 14.9818 5.87893C15.3727 6.26357 15.9094 6.5012 16.5012 6.5012C16.6849 6.5012 16.8626 6.47837 17.033 6.43573C17.0721 6.42595 17.0972 6.38846 17.0928 6.34843C17.0155 5.65159 16.8393 4.98746 16.5793 4.36927Z" fill="#33363F"/>
<path d="M6.85889 16.9736C7.04417 18.0106 7.45269 18.9262 8.02046 19.5796C8.58823 20.2329 9.28384 20.5872 9.99898 20.5872C10.7141 20.5872 11.4097 20.2329 11.9775 19.5796C12.5453 18.9262 12.9538 18.0106 13.1391 16.9736" stroke="#33363F" stroke-width="2" stroke-linecap="round"/>
<path d="M16.5008 7.04267C17.9969 7.04267 19.2097 5.82988 19.2097 4.33383C19.2097 2.83779 17.9969 1.625 16.5008 1.625C15.0048 1.625 13.792 2.83779 13.792 4.33383C13.792 5.82988 15.0048 7.04267 16.5008 7.04267Z" fill="#EF0000" stroke="#EF0000"/>
</svg>
