<svg width="23" height="26" viewBox="0 0 23 26" fill="none" xmlns="http://www.w3.org/2000/svg">
<path d="M16.4217 7.96911V6.70595C16.4217 3.91564 14.1594 1.65332 11.369 1.65332C8.57872 1.65332 6.31641 3.91564 6.31641 6.70595V7.96911" stroke="#1237F2" stroke-width="2" stroke-linecap="round"/>
<path fill-rule="evenodd" clip-rule="evenodd" d="M1.11035 7.81637C3.57628e-05 8.92542 0 10.7128 0 14.285V15.5482C0 20.3115 -3.7645e-06 22.6939 1.48042 24.173C2.95958 25.6534 5.3419 25.6534 10.1053 25.6534H12.6316C17.3949 25.6534 19.7773 25.6534 21.2564 24.173C22.7368 22.6939 22.7368 20.3115 22.7368 15.5482V14.285C22.7368 10.7128 22.7368 8.92542 21.6265 7.81637C20.5174 6.70605 18.7301 6.70605 15.1579 6.70605H7.57895C4.00674 6.70605 2.2194 6.70605 1.11035 7.81637ZM11.3684 16.8113C12.0657 16.8113 12.6316 16.2454 12.6316 15.5482C12.6316 14.8509 12.0657 14.285 11.3684 14.285C10.6712 14.285 10.1053 14.8509 10.1053 15.5482C10.1053 16.2454 10.6712 16.8113 11.3684 16.8113ZM15.1579 15.5482C15.1579 17.1978 14.1032 18.6012 12.6316 19.1216V21.864H10.1053V19.1216C8.63369 18.6012 7.57895 17.1978 7.57895 15.5482C7.57895 13.4551 9.27537 11.7587 11.3684 11.7587C13.4615 11.7587 15.1579 13.4551 15.1579 15.5482Z" fill="#1237F2"/>
</svg>
