<svg width="33" height="33" viewBox="0 0 33 33" fill="none" xmlns="http://www.w3.org/2000/svg">
<path d="M1.22656 19.5947C1.22656 12.9673 6.59956 7.59473 13.2266 7.59473C19.8536 7.59473 25.2266 12.9673 25.2266 19.5947V27.2312C25.2266 28.5017 25.2266 29.1362 25.0376 29.6432C24.7331 30.4577 24.0896 31.1012 23.2751 31.4057C22.7681 31.5947 22.1336 31.5947 20.8631 31.5947H13.2266C6.59956 31.5947 1.22656 26.2217 1.22656 19.5947Z" stroke="#4460EF" stroke-width="2"/>
<path d="M8.22656 17.5947H18.2266" stroke="#4460EF" stroke-width="2" stroke-linecap="round" stroke-linejoin="round"/>
<path d="M14.2266 24.5947H18.2266" stroke="#4460EF" stroke-width="2" stroke-linecap="round" stroke-linejoin="round"/>
<circle cx="24.2266" cy="8.59473" r="8" fill="#FF5E5E"/>
<path d="M23.1357 7.5957H23.7803C24.096 7.5957 24.3564 7.54362 24.5615 7.43945C24.7699 7.33203 24.9245 7.18718 25.0254 7.00488C25.1296 6.81934 25.1816 6.611 25.1816 6.37988C25.1816 6.10645 25.1361 5.87695 25.0449 5.69141C24.9538 5.50586 24.8171 5.36589 24.6348 5.27148C24.4525 5.17708 24.2214 5.12988 23.9414 5.12988C23.6875 5.12988 23.4629 5.18034 23.2676 5.28125C23.0755 5.37891 22.9242 5.51888 22.8135 5.70117C22.7061 5.88346 22.6523 6.09831 22.6523 6.3457H21.749C21.749 5.98438 21.8402 5.6556 22.0225 5.35938C22.2048 5.06315 22.4603 4.82715 22.7891 4.65137C23.1211 4.47559 23.5052 4.3877 23.9414 4.3877C24.3711 4.3877 24.7471 4.46419 25.0693 4.61719C25.3916 4.76693 25.6423 4.99154 25.8213 5.29102C26.0003 5.58724 26.0898 5.95671 26.0898 6.39941C26.0898 6.57845 26.0475 6.77051 25.9629 6.97559C25.8815 7.17741 25.7529 7.36621 25.5771 7.54199C25.4046 7.71777 25.18 7.86263 24.9033 7.97656C24.6266 8.08724 24.2946 8.14258 23.9072 8.14258H23.1357V7.5957ZM23.1357 8.33789V7.7959H23.9072C24.3597 7.7959 24.734 7.84961 25.0303 7.95703C25.3265 8.06445 25.5592 8.20768 25.7285 8.38672C25.901 8.56576 26.0215 8.7627 26.0898 8.97754C26.1615 9.18913 26.1973 9.40072 26.1973 9.61231C26.1973 9.94434 26.1403 10.2389 26.0264 10.4961C25.9157 10.7533 25.7578 10.9714 25.5527 11.1504C25.3509 11.3294 25.1133 11.4645 24.8398 11.5557C24.5664 11.6468 24.2686 11.6924 23.9463 11.6924C23.637 11.6924 23.3457 11.6484 23.0723 11.5605C22.8021 11.4727 22.5628 11.3457 22.3545 11.1797C22.1462 11.0104 21.9834 10.8037 21.8662 10.5596C21.749 10.3122 21.6904 10.0306 21.6904 9.71484H22.5938C22.5938 9.96224 22.6475 10.1787 22.7549 10.3643C22.8656 10.5498 23.0218 10.6947 23.2236 10.7988C23.4287 10.8997 23.6696 10.9502 23.9463 10.9502C24.223 10.9502 24.4606 10.903 24.6592 10.8086C24.861 10.7109 25.0156 10.5645 25.123 10.3691C25.2337 10.1738 25.2891 9.92806 25.2891 9.63184C25.2891 9.33561 25.2272 9.0931 25.1035 8.9043C24.9798 8.71224 24.804 8.57064 24.5762 8.47949C24.3516 8.38509 24.0863 8.33789 23.7803 8.33789H23.1357Z" fill="white"/>
</svg>
