<svg width="27" height="27" viewBox="0 0 27 27" fill="none" xmlns="http://www.w3.org/2000/svg">
<path d="M13.6172 13.6483C13.6172 12.8233 14.286 12.1545 15.111 12.1545H24.0736C24.8986 12.1545 25.5674 12.8233 25.5674 13.6483V24.1048C25.5674 24.9298 24.8986 25.5985 24.0736 25.5985H15.111C14.286 25.5985 13.6172 24.9298 13.6172 24.1048V13.6483Z" stroke="#A7A7A7" stroke-width="2" stroke-linecap="round"/>
<path d="M1.56641 3.09863C1.56641 2.27021 2.2352 1.59863 3.06018 1.59863H7.54151C8.36649 1.59863 9.03529 2.27021 9.03529 3.09863V24.0986C9.03529 24.9271 8.36649 25.5986 7.54151 25.5986H3.06018C2.2352 25.5986 1.56641 24.9271 1.56641 24.0986V3.09863Z" stroke="#A7A7A7" stroke-width="2" stroke-linecap="round"/>
<path d="M13.6172 3.09241C13.6172 2.26743 14.286 1.59863 15.111 1.59863H24.0736C24.8986 1.59863 25.5674 2.26743 25.5674 3.09241V6.07996C25.5674 6.90494 24.8986 7.57374 24.0736 7.57374H15.111C14.286 7.57374 13.6172 6.90494 13.6172 6.07996V3.09241Z" stroke="#A7A7A7" stroke-width="2" stroke-linecap="round"/>
</svg>
