<svg width="25" height="22" viewBox="0 0 25 22" fill="none" xmlns="http://www.w3.org/2000/svg">
<path d="M12.2256 6.29584C13.9352 6.29584 15.3261 4.90492 15.3261 3.19529C15.3261 1.48565 13.9352 0.0947266 12.2256 0.0947266C10.5159 0.0947266 9.125 1.48565 9.125 3.19529C9.125 4.90487 10.5159 6.29584 12.2256 6.29584ZM12.2256 1.5915C13.1098 1.5915 13.8293 2.31089 13.8293 3.19519C13.8293 4.07949 13.1099 4.79889 12.2256 4.79889C11.3413 4.79889 10.6219 4.07949 10.6219 3.19519C10.6219 2.31094 11.3413 1.5915 12.2256 1.5915Z" fill="#A7A7A7"/>
<path d="M7.22892 13.7637H17.2293C17.6427 13.7637 17.9778 13.4286 17.9778 13.0152C17.9778 9.84539 15.3989 7.2666 12.2291 7.2666C9.05935 7.2666 6.48047 9.84539 6.48047 13.0152C6.48047 13.4286 6.81558 13.7637 7.22892 13.7637ZM16.4149 12.2668H8.04333C8.87237 7.61718 15.5867 7.62187 16.4149 12.2668Z" fill="#A7A7A7"/>
<path d="M15.2485 16.6366L13.6251 16.4007L12.8991 14.9297C12.6252 14.3745 11.8309 14.3742 11.5568 14.9297L10.8308 16.4007L9.20744 16.6366C8.59482 16.7256 8.3491 17.4809 8.79264 17.9132L9.96728 19.0583L9.68997 20.6751C9.5853 21.2852 10.2277 21.7524 10.7759 21.4641L12.2279 20.7008L13.6799 21.4641C14.2249 21.7506 14.8713 21.2894 14.7659 20.6751L14.4886 19.0583L15.6632 17.9132C16.1066 17.4811 15.8615 16.7257 15.2485 16.6366ZM13.0342 19.4334C12.1668 18.9774 12.2358 19.0055 11.4218 19.4334C11.5779 18.5237 11.6272 18.5858 10.9235 17.8999C11.8374 17.7671 11.7931 17.8333 12.228 16.9521C12.6617 17.8308 12.6175 17.7669 13.5325 17.8999C12.8308 18.5838 12.8779 18.5221 13.0342 19.4334Z" fill="#A7A7A7"/>
<path d="M6.90863 16.6366L5.28525 16.4007L4.55925 14.9297C4.28526 14.3745 3.49105 14.3742 3.21693 14.9297L2.49097 16.4007L0.867592 16.6366C0.25498 16.7256 0.00926042 17.4809 0.452793 17.9132L1.62749 19.0582L1.35017 20.675C1.2455 21.2852 1.88788 21.7523 2.43613 21.464L3.88813 20.7007L5.34014 21.464C5.88502 21.7505 6.53147 21.2893 6.4261 20.675L6.14878 19.0582L7.32343 17.9132C7.76673 17.4811 7.52162 16.7257 6.90863 16.6366ZM4.69434 19.4334C3.84717 18.988 3.9291 18.988 3.08193 19.4334C3.23802 18.5236 3.28734 18.5859 2.58365 17.8999C3.49743 17.7671 3.45323 17.8334 3.88813 16.9521C4.32178 17.8308 4.27757 17.7669 5.19262 17.8999C4.53168 18.5441 4.52817 18.4649 4.69434 19.4334Z" fill="#A7A7A7"/>
<path d="M23.5883 16.6366L21.9649 16.4007L21.239 14.9297C20.965 14.3745 20.1708 14.3742 19.8967 14.9297L19.1707 16.4007L17.5473 16.6366C16.9347 16.7256 16.6889 17.4809 17.1325 17.9132L18.3072 19.0583L18.0299 20.6751C17.9252 21.2852 18.5676 21.7523 19.1159 21.4641L20.5679 20.7007L22.0199 21.4641C22.5648 21.7506 23.2112 21.2894 23.1058 20.6751L22.8285 19.0583L24.0032 17.9132C24.4464 17.4811 24.2013 16.7257 23.5883 16.6366ZM21.3741 19.4334C20.5066 18.9774 20.5799 19.0032 19.7617 19.4334C19.9177 18.5237 19.9671 18.5858 19.2634 17.8999C20.233 17.759 20.1587 17.7813 20.5679 16.9521C21.0015 17.8308 20.9573 17.7669 21.8724 17.8999C21.1706 18.5838 21.2177 18.5221 21.3741 19.4334Z" fill="#A7A7A7"/>
</svg>
