<svg width="27" height="27" viewBox="0 0 27 27" fill="none" xmlns="http://www.w3.org/2000/svg">
<path d="M22.5599 6.05162C20.3599 3.33295 16.9963 1.59473 13.2266 1.59473C6.59915 1.59473 1.22656 6.96731 1.22656 13.5947C1.22656 16.0615 1.97092 18.3546 3.2473 20.2614M25.2266 13.5947C25.2266 20.2222 19.854 25.5947 13.2266 25.5947C11.8412 25.5947 10.5107 25.3599 9.27259 24.9281M13.2266 18.9281H14.5599C15.4488 18.9281 17.2266 18.3947 17.2266 16.2614C17.2266 14.1281 15.4488 13.5947 14.5599 13.5947H11.8932C11.0043 13.5947 9.22656 13.0614 9.22656 10.9281C9.22656 8.79473 11.0043 8.26139 11.8932 8.26139H13.2266M13.2266 18.9281H9.22656M13.2266 18.9281V21.5947M13.2266 8.26139H17.2266M13.2266 8.26139V5.59473" stroke="#A7A7A7" stroke-width="2" stroke-linecap="round" stroke-linejoin="round"/>
</svg>
