<svg width="27" height="26" viewBox="0 0 27 26" fill="none" xmlns="http://www.w3.org/2000/svg">
<path d="M23.7268 10.5948V6.39477C23.7268 4.7146 23.7268 3.87451 23.3998 3.23277C23.1122 2.66827 22.6532 2.20933 22.0888 1.92171C21.447 1.59473 20.6069 1.59473 18.9267 1.59473H6.02661C4.34644 1.59473 3.50634 1.59473 2.86461 1.92171C2.30011 2.20933 1.84116 2.66827 1.55355 3.23277C1.22656 3.87451 1.22656 4.71459 1.22656 6.39477V14.7948C1.22656 16.475 1.22656 17.3152 1.55355 17.9569C1.84116 18.5213 2.30011 18.9803 2.86461 19.2679C3.50634 19.5949 4.34643 19.5949 6.02661 19.5949H16.2267" stroke="#A7A7A7" stroke-width="2" stroke-linecap="round"/>
<path d="M7.22656 13.5947H13.2266" stroke="#A7A7A7" stroke-width="2" stroke-linecap="round"/>
<path d="M7.22656 7.59473H17.7267" stroke="#A7A7A7" stroke-width="2" stroke-linecap="round"/>
<path d="M22.2266 18.0948C23.055 18.0948 23.7266 17.4232 23.7266 16.5947C23.7266 15.7663 23.055 15.0947 22.2266 15.0947C21.3981 15.0947 20.7266 15.7663 20.7266 16.5947C20.7266 17.4232 21.3981 18.0948 22.2266 18.0948Z" stroke="#A7A7A7" stroke-width="2"/>
<path d="M25.2305 24.0947C25.2305 24.0947 24.4805 22.5947 22.2305 22.5947C19.9805 22.5947 19.2305 24.0947 19.2305 24.0947" stroke="#A7A7A7" stroke-width="2" stroke-linecap="round"/>
</svg>
