<svg width="56" height="45" viewBox="0 0 56 45" fill="none" xmlns="http://www.w3.org/2000/svg">
<path d="M30.8672 36.3086C30.8672 36.3086 30.8681 23.669 30.8672 17.69C30.8663 11.7109 37.5121 8.59882 40.9576 8.59863C44.4031 8.59844 50.5558 11.7017 50.5558 17.69C50.5558 23.6782 50.5558 36.3086 50.5558 36.3086" stroke="#A421BA" stroke-width="9" stroke-linecap="round"/>
<g filter="url(#filter0_d_603_2540)">
<path d="M30.4326 35.5986V19.0566C30.7004 14.0474 28.5612 12.077 27.668 11.0986" stroke="#FFA217" stroke-width="8" stroke-linecap="round" shape-rendering="crispEdges"/>
</g>
<path d="M11.168 36.3086C11.168 36.3086 11.1689 23.669 11.168 17.69C11.1671 11.7109 17.8129 8.59882 21.2584 8.59863C24.7039 8.59844 30.8566 11.7017 30.8566 17.69C30.8566 23.6782 30.8566 36.3086 30.8566 36.3086" stroke="#FF0069" stroke-width="9" stroke-linecap="round"/>
<g filter="url(#filter1_d_603_2540)">
<path d="M11.1293 36.3086V16.8112C11.1293 12.7558 8.64997 7.82682 4.56641 8.7003" stroke="#FFA217" stroke-width="9" stroke-linecap="round" shape-rendering="crispEdges"/>
</g>
<defs>
<filter id="filter0_d_603_2540" x="23.668" y="3.09863" width="18.7891" height="40.5" filterUnits="userSpaceOnUse" color-interpolation-filters="sRGB">
<feFlood flood-opacity="0" result="BackgroundImageFix"/>
<feColorMatrix in="SourceAlpha" type="matrix" values="0 0 0 0 0 0 0 0 0 0 0 0 0 0 0 0 0 0 127 0" result="hardAlpha"/>
<feOffset dx="4"/>
<feGaussianBlur stdDeviation="2"/>
<feComposite in2="hardAlpha" operator="out"/>
<feColorMatrix type="matrix" values="0 0 0 0 0 0 0 0 0 0 0 0 0 0 0 0 0 0 0.25 0"/>
<feBlend mode="normal" in2="BackgroundImageFix" result="effect1_dropShadow_603_2540"/>
<feBlend mode="normal" in="SourceGraphic" in2="effect1_dropShadow_603_2540" result="shape"/>
</filter>
<filter id="filter1_d_603_2540" x="0.0664062" y="0.0925293" width="23.5625" height="44.7161" filterUnits="userSpaceOnUse" color-interpolation-filters="sRGB">
<feFlood flood-opacity="0" result="BackgroundImageFix"/>
<feColorMatrix in="SourceAlpha" type="matrix" values="0 0 0 0 0 0 0 0 0 0 0 0 0 0 0 0 0 0 127 0" result="hardAlpha"/>
<feOffset dx="4"/>
<feGaussianBlur stdDeviation="2"/>
<feComposite in2="hardAlpha" operator="out"/>
<feColorMatrix type="matrix" values="0 0 0 0 0 0 0 0 0 0 0 0 0 0 0 0 0 0 0.25 0"/>
<feBlend mode="normal" in2="BackgroundImageFix" result="effect1_dropShadow_603_2540"/>
<feBlend mode="normal" in="SourceGraphic" in2="effect1_dropShadow_603_2540" result="shape"/>
</filter>
</defs>
</svg>
