<svg width="155" height="46" viewBox="0 0 155 46" fill="none" xmlns="http://www.w3.org/2000/svg">
<path d="M70.2503 15.758C69.7311 15.758 69.4715 15.704 69.4715 15.5958L69.2878 12.3438L68.2202 15.6364C68.1969 15.7013 67.9986 15.7337 67.6252 15.7337C67.2519 15.7337 67.0594 15.704 67.0477 15.6445L65.9452 12.3113L65.8227 15.5472C65.8169 15.6283 65.706 15.685 65.4902 15.7175C65.2743 15.7445 65.0935 15.758 64.9477 15.758C64.8077 15.758 64.6706 15.7499 64.5364 15.7337C64.2564 15.6959 64.1193 15.6283 64.1252 15.531L64.3264 10.2595C64.3264 10.1298 64.6823 10.0649 65.3939 10.0649C65.6039 10.0649 65.8606 10.0811 66.164 10.1135C66.4673 10.1406 66.6365 10.1973 66.6715 10.2839L67.6515 12.8385L68.509 10.2757C68.5615 10.1352 68.964 10.0649 69.7165 10.0649C69.9324 10.0649 70.189 10.0811 70.4865 10.1135C70.7899 10.1406 70.9415 10.1919 70.9415 10.2676L71.1953 15.5877C71.1953 15.6472 71.0815 15.6904 70.854 15.7175C70.6265 15.7445 70.4253 15.758 70.2503 15.758ZM74.9378 10.3406C75.0136 10.1514 75.387 10.0568 76.0578 10.0568C76.227 10.0568 76.4253 10.0676 76.6528 10.0892C76.8862 10.1108 76.9941 10.1379 76.9766 10.1703L75.1565 13.5602V15.5391C75.1565 15.631 74.9961 15.6959 74.6753 15.7337C74.512 15.7553 74.3516 15.7661 74.194 15.7661C74.0365 15.7661 73.879 15.758 73.7215 15.7418C73.4007 15.704 73.2403 15.6364 73.2403 15.5391V13.6089L71.359 10.1865C71.3357 10.1541 71.4553 10.1244 71.7178 10.0973C71.9803 10.0649 72.2019 10.0487 72.3828 10.0487C73.1003 10.0487 73.494 10.146 73.564 10.3406L74.2028 11.995L74.9378 10.3406ZM80.9528 15.7661C80.4453 15.7661 80.1711 15.6904 80.1303 15.5391L79.8415 14.4929H78.4503L78.1965 15.4985C78.1615 15.6661 77.8815 15.7499 77.3565 15.7499C77.0765 15.7499 76.8694 15.7364 76.7352 15.7094C76.6011 15.6769 76.534 15.6526 76.534 15.6364L78.0827 10.146C78.0827 10.1027 78.4823 10.0811 79.2815 10.0811C80.0807 10.0811 80.4803 10.1027 80.4803 10.146L81.9941 15.6445C81.9941 15.6823 81.8599 15.7121 81.5916 15.7337C81.3232 15.7553 81.1103 15.7661 80.9528 15.7661ZM78.669 13.4629H79.5878L79.194 11.7842H79.1415L78.669 13.4629ZM87.3692 15.5715C87.3692 15.685 87.095 15.7418 86.5467 15.7418C85.9984 15.7418 85.7009 15.7013 85.6542 15.6202L84.1929 13.0899V15.612C84.1929 15.7094 83.9217 15.758 83.3792 15.758C82.8425 15.758 82.5741 15.7094 82.5741 15.612V10.1865C82.5741 10.1054 82.8046 10.0649 83.2654 10.0649C83.4462 10.0649 83.6562 10.0811 83.8954 10.1135C84.1404 10.1406 84.2892 10.1946 84.3417 10.2757L85.7417 12.7736V10.2271C85.7417 10.1244 86.0129 10.073 86.5554 10.073C87.098 10.073 87.3692 10.1244 87.3692 10.2271V15.5715ZM94.373 15.758C93.8538 15.758 93.5942 15.704 93.5942 15.5958L93.4105 12.3438L92.3429 15.6364C92.3196 15.7013 92.1213 15.7337 91.7479 15.7337C91.3746 15.7337 91.1821 15.704 91.1704 15.6445L90.0679 12.3113L89.9454 15.5472C89.9396 15.6283 89.8287 15.685 89.6129 15.7175C89.3971 15.7445 89.2162 15.758 89.0704 15.758C88.9304 15.758 88.7933 15.7499 88.6591 15.7337C88.3791 15.6959 88.242 15.6283 88.2479 15.531L88.4491 10.2595C88.4491 10.1298 88.805 10.0649 89.5166 10.0649C89.7266 10.0649 89.9833 10.0811 90.2867 10.1135C90.59 10.1406 90.7592 10.1973 90.7942 10.2839L91.7742 12.8385L92.6317 10.2757C92.6842 10.1352 93.0867 10.0649 93.8392 10.0649C94.0551 10.0649 94.3117 10.0811 94.6092 10.1135C94.9126 10.1406 95.0642 10.1919 95.0642 10.2676L95.318 15.5877C95.318 15.6472 95.2042 15.6904 94.9767 15.7175C94.7492 15.7445 94.548 15.758 94.373 15.758ZM100.299 15.7661C99.7915 15.7661 99.5173 15.6904 99.4765 15.5391L99.1877 14.4929H97.7965L97.5427 15.4985C97.5077 15.6661 97.2277 15.7499 96.7027 15.7499C96.4227 15.7499 96.2156 15.7364 96.0814 15.7094C95.9473 15.6769 95.8802 15.6526 95.8802 15.6364L97.429 10.146C97.429 10.1027 97.8286 10.0811 98.6277 10.0811C99.4269 10.0811 99.8265 10.1027 99.8265 10.146L101.34 15.6445C101.34 15.6823 101.206 15.7121 100.938 15.7337C100.669 15.7553 100.457 15.7661 100.299 15.7661ZM98.0152 13.4629H98.934L98.5402 11.7842H98.4877L98.0152 13.4629ZM103.591 15.6364C103.591 15.7229 103.314 15.7661 102.76 15.7661C102.2 15.7661 101.92 15.7256 101.92 15.6445V10.3568C101.92 10.1676 102.028 10.073 102.244 10.073H103.915C105.449 10.073 106.216 10.6272 106.216 11.7355C106.216 12.0707 106.146 12.3762 106.006 12.6519C105.866 12.9223 105.668 13.1385 105.411 13.3007L106.514 15.0038C106.467 15.1336 106.315 15.2822 106.059 15.4499C105.709 15.6823 105.42 15.7986 105.193 15.7986C104.965 15.7986 104.796 15.7229 104.685 15.5715L103.863 13.7954H103.591V15.6364ZM103.591 11.5084V12.7249H103.635C104.189 12.7249 104.466 12.5114 104.466 12.0842C104.466 11.8896 104.411 11.7463 104.3 11.6544C104.195 11.5571 104.02 11.5084 103.775 11.5084H103.591ZM111.574 12.3275C111.685 12.3275 111.741 12.5168 111.741 12.8952C111.741 13.0088 111.726 13.1439 111.697 13.3007C111.673 13.4521 111.627 13.5278 111.557 13.5278H110.446V14.3388H112.056C112.155 14.3388 112.222 14.4577 112.257 14.6956C112.274 14.7984 112.283 14.9092 112.283 15.0281C112.283 15.1417 112.266 15.2904 112.231 15.4742C112.196 15.658 112.137 15.7499 112.056 15.7499H109.063C108.841 15.7499 108.731 15.6661 108.731 15.4985V10.2839C108.731 10.1433 108.798 10.073 108.932 10.073H112.064C112.187 10.073 112.248 10.3136 112.248 10.7948C112.248 11.2706 112.187 11.5084 112.064 11.5084H110.446V12.3275H111.574ZM113.046 15.3769V10.5109C113.046 10.3758 113.081 10.2703 113.151 10.1946C113.227 10.1135 113.323 10.073 113.44 10.073H114.901C115.828 10.073 116.531 10.2893 117.01 10.7218C117.494 11.1543 117.736 11.8355 117.736 12.7655C117.736 14.7551 116.82 15.7499 114.988 15.7499H113.492C113.195 15.7499 113.046 15.6256 113.046 15.3769ZM114.726 11.6139V14.0387C114.726 14.1523 114.735 14.2253 114.752 14.2577C114.77 14.2847 114.822 14.2982 114.91 14.2982C115.23 14.2982 115.473 14.1874 115.636 13.9657C115.805 13.7441 115.89 13.3764 115.89 12.8628C115.89 12.3438 115.802 12.0058 115.627 11.8491C115.458 11.6923 115.187 11.6139 114.813 11.6139H114.726ZM121.299 10.2352C121.299 10.1271 121.614 10.073 122.244 10.073C122.88 10.073 123.198 10.1271 123.198 10.2352V13.9576C123.198 14.5091 122.985 14.9606 122.559 15.312C122.133 15.658 121.544 15.831 120.792 15.831C120.045 15.831 119.435 15.6526 118.963 15.2958C118.496 14.9335 118.263 14.4469 118.263 13.836V10.2433C118.263 10.1352 118.578 10.0811 119.208 10.0811C119.844 10.0811 120.161 10.1352 120.161 10.2433V13.9009C120.161 14.009 120.223 14.0955 120.345 14.1604C120.474 14.2253 120.608 14.2577 120.748 14.2577C120.888 14.2577 121.013 14.228 121.124 14.1685C121.241 14.109 121.299 14.0198 121.299 13.9009V10.2352ZM126.435 10C126.86 10 127.234 10.0568 127.555 10.1703C127.881 10.2784 128.045 10.4271 128.045 10.6164C128.045 10.8056 127.966 11.0408 127.808 11.3219C127.657 11.5977 127.528 11.7355 127.423 11.7355C127.394 11.7355 127.359 11.722 127.318 11.695C127.283 11.6625 127.196 11.6301 127.056 11.5977C126.922 11.5598 126.805 11.5409 126.706 11.5409C126.368 11.5409 126.093 11.6517 125.883 11.8734C125.679 12.0951 125.577 12.4357 125.577 12.8952C125.577 13.3494 125.682 13.6873 125.892 13.909C126.108 14.1306 126.379 14.2415 126.706 14.2415C126.84 14.2415 126.989 14.2253 127.152 14.1928C127.321 14.155 127.441 14.1036 127.511 14.0387C127.523 14.0279 127.546 14.0225 127.581 14.0225C127.616 14.0225 127.68 14.0847 127.773 14.209C127.873 14.328 127.963 14.4875 128.045 14.6875C128.126 14.8822 128.167 15.0335 128.167 15.1417C128.167 15.3525 127.992 15.5201 127.642 15.6445C127.292 15.7688 126.878 15.831 126.4 15.831C125.63 15.831 124.997 15.5796 124.501 15.0768C124.005 14.574 123.757 13.8657 123.757 12.952C123.757 12.0329 124.011 11.3111 124.518 10.7867C125.032 10.2622 125.67 10 126.435 10ZM132.949 15.7661C132.442 15.7661 132.168 15.6904 132.127 15.5391L131.838 14.4929H130.447L130.193 15.4985C130.158 15.6661 129.878 15.7499 129.353 15.7499C129.073 15.7499 128.866 15.7364 128.732 15.7094C128.598 15.6769 128.531 15.6526 128.531 15.6364L130.079 10.146C130.079 10.1027 130.479 10.0811 131.278 10.0811C132.077 10.0811 132.477 10.1027 132.477 10.146L133.991 15.6445C133.991 15.6823 133.857 15.7121 133.588 15.7337C133.32 15.7553 133.107 15.7661 132.949 15.7661ZM130.666 13.4629H131.584L131.191 11.7842H131.138L130.666 13.4629ZM136.982 15.6202C136.982 15.7283 136.693 15.7824 136.116 15.7824C135.538 15.7824 135.25 15.7283 135.25 15.6202V11.549H134.2C134.1 11.549 134.03 11.4246 133.99 11.1759C133.972 11.057 133.963 10.9353 133.963 10.811C133.963 10.6866 133.972 10.565 133.99 10.446C134.03 10.1973 134.1 10.073 134.2 10.073H138.006C138.105 10.073 138.175 10.1973 138.216 10.446C138.233 10.565 138.242 10.6866 138.242 10.811C138.242 10.9353 138.233 11.057 138.216 11.1759C138.175 11.4246 138.105 11.549 138.006 11.549H136.982V15.6202ZM139.318 14.355V11.4679H138.697C138.598 11.4679 138.528 11.3517 138.487 11.1192C138.469 11.0056 138.461 10.8894 138.461 10.7704C138.461 10.6515 138.469 10.5353 138.487 10.4217C138.528 10.1892 138.598 10.073 138.697 10.073H141.637C141.736 10.073 141.803 10.1892 141.838 10.4217C141.861 10.5353 141.873 10.6515 141.873 10.7704C141.873 10.8894 141.861 11.0056 141.838 11.1192C141.803 11.3517 141.736 11.4679 141.637 11.4679H141.051V14.355H141.663C141.762 14.355 141.832 14.4713 141.873 14.7037C141.896 14.8173 141.908 14.9335 141.908 15.0525C141.908 15.1714 141.896 15.2877 141.873 15.4012C141.832 15.6337 141.762 15.7499 141.663 15.7499H138.714C138.615 15.7499 138.548 15.6337 138.513 15.4012C138.49 15.2877 138.478 15.1714 138.478 15.0525C138.478 14.9335 138.49 14.8173 138.513 14.7037C138.548 14.4713 138.615 14.355 138.714 14.355H139.318ZM145.091 15.831C144.274 15.831 143.606 15.5823 143.087 15.0849C142.574 14.5875 142.317 13.863 142.317 12.9115C142.317 11.9545 142.576 11.23 143.096 10.738C143.621 10.246 144.294 10 145.117 10C145.945 10 146.613 10.2433 147.121 10.7299C147.628 11.2111 147.882 11.9437 147.882 12.9277C147.882 13.9063 147.622 14.6362 147.103 15.1173C146.584 15.5931 145.913 15.831 145.091 15.831ZM145.099 11.5571C144.819 11.5571 144.583 11.676 144.391 11.9139C144.204 12.1518 144.111 12.487 144.111 12.9196C144.111 13.3467 144.201 13.6765 144.382 13.909C144.563 14.136 144.799 14.2496 145.091 14.2496C145.388 14.2496 145.627 14.1333 145.808 13.9009C145.995 13.6684 146.088 13.3359 146.088 12.9033C146.088 12.4708 145.992 12.1383 145.799 11.9058C145.613 11.6733 145.379 11.5571 145.099 11.5571ZM153.38 15.5715C153.38 15.685 153.105 15.7418 152.557 15.7418C152.009 15.7418 151.711 15.7013 151.665 15.6202L150.203 13.0899V15.612C150.203 15.7094 149.932 15.758 149.39 15.758C148.853 15.758 148.585 15.7094 148.585 15.612V10.1865C148.585 10.1054 148.815 10.0649 149.276 10.0649C149.457 10.0649 149.667 10.0811 149.906 10.1135C150.151 10.1406 150.3 10.1946 150.352 10.2757L151.752 12.7736V10.2271C151.752 10.1244 152.023 10.073 152.566 10.073C153.108 10.073 153.38 10.1244 153.38 10.2271V15.5715Z" fill="white"/>
<path d="M66.8851 35.7299C65.4694 35.7299 64.7617 35.5856 64.7617 35.2974V21.2835C64.7617 20.7931 65.0027 20.5482 65.4851 20.5482H69.5918C71.8942 20.5482 73.5509 20.9878 74.5619 21.8674C75.5886 22.747 76.1019 24.0229 76.1019 25.6952C76.1019 27.0793 75.6196 28.3482 74.6552 29.5015C74.1729 30.0783 73.4652 30.5395 72.5319 30.8856C71.5985 31.2316 70.5095 31.4046 69.2651 31.4046V35.2757C69.2651 35.4487 68.9695 35.5714 68.3785 35.6434C67.8028 35.7012 67.3051 35.7299 66.8851 35.7299ZM69.2651 24.3111V27.7281H69.5685C70.1128 27.7281 70.5718 27.5696 70.9452 27.2523C71.3185 26.935 71.5052 26.4883 71.5052 25.9115C71.5052 25.3347 71.3728 24.9238 71.1085 24.6788C70.8595 24.4338 70.4085 24.3111 69.7552 24.3111H69.2651ZM87.4261 35.9029C85.2484 35.9029 83.467 35.2396 82.0827 33.9133C80.7136 32.587 80.0293 30.6548 80.0293 28.1174C80.0293 25.5655 80.7216 23.6336 82.106 22.3215C83.506 21.0094 85.3027 20.3535 87.4961 20.3535C89.7051 20.3535 91.4861 21.0023 92.8395 22.2999C94.1929 23.5829 94.8695 25.5368 94.8695 28.1606C94.8695 30.7703 94.1772 32.7167 92.7928 33.9998C91.4085 35.2686 89.6194 35.9029 87.4261 35.9029ZM87.4494 24.5058C86.7027 24.5058 86.0727 24.8231 85.5594 25.4573C85.0617 26.0916 84.8127 26.9857 84.8127 28.139C84.8127 29.2781 85.0537 30.1574 85.536 30.7774C86.0184 31.383 86.6484 31.6857 87.4261 31.6857C88.2194 31.6857 88.8571 31.3759 89.3394 30.7558C89.8371 30.1357 90.0861 29.2491 90.0861 28.0958C90.0861 26.9425 89.8294 26.0558 89.3161 25.4357C88.8184 24.8157 88.1961 24.5058 87.4494 24.5058ZM103.533 35.3839C103.533 35.6147 102.794 35.7299 101.317 35.7299C99.8232 35.7299 99.0765 35.6217 99.0765 35.4055V21.3051C99.0765 20.8006 99.3642 20.5482 99.9399 20.5482H104.397C108.488 20.5482 110.533 22.0258 110.533 24.9816C110.533 25.8753 110.347 26.69 109.973 27.4253C109.6 28.1461 109.071 28.7229 108.387 29.1555L111.327 33.697C111.202 34.043 110.798 34.4394 110.113 34.8865C109.18 35.5065 108.41 35.8164 107.803 35.8164C107.197 35.8164 106.745 35.6146 106.45 35.2108L104.257 30.4747H103.533V35.3839ZM103.533 24.376V27.62H103.65C105.128 27.62 105.867 27.0506 105.867 25.9115C105.867 25.3925 105.719 25.0103 105.423 24.7653C105.143 24.5058 104.677 24.376 104.023 24.376H103.533ZM122.196 35.3406C122.196 35.6288 121.426 35.7731 119.886 35.7731C118.346 35.7731 117.576 35.6288 117.576 35.3406V24.4842H114.776C114.512 24.4842 114.325 24.1527 114.216 23.4893C114.169 23.172 114.146 22.8476 114.146 22.5162C114.146 22.1847 114.169 21.8603 114.216 21.543C114.325 20.8796 114.512 20.5482 114.776 20.5482H124.926C125.191 20.5482 125.378 20.8796 125.486 21.543C125.533 21.8603 125.556 22.1847 125.556 22.5162C125.556 22.8476 125.533 23.172 125.486 23.4893C125.378 24.1527 125.191 24.4842 124.926 24.4842H122.196V35.3406ZM139.593 35.7299C138.24 35.7299 137.509 35.5281 137.4 35.1243L136.63 32.3345H132.92L132.243 35.0162C132.15 35.4633 131.403 35.6866 130.003 35.6866C129.257 35.6866 128.704 35.6505 128.347 35.5785C127.988 35.492 127.81 35.4271 127.81 35.3839L131.94 20.7428C131.94 20.6276 133.005 20.5698 135.137 20.5698C137.268 20.5698 138.333 20.6276 138.333 20.7428L142.37 35.4055C142.37 35.5065 142.012 35.5856 141.297 35.6434C140.581 35.7012 140.013 35.7299 139.593 35.7299ZM133.503 29.588H135.953L134.903 25.1113H134.763L133.503 29.588ZM146.016 34.4107V20.9591C146.016 20.6563 146.802 20.5049 148.373 20.5049C149.96 20.5049 150.753 20.6563 150.753 20.9591V31.556H154.346C154.626 31.556 154.821 31.8949 154.93 32.5724C154.976 32.9039 155 33.2428 155 33.5889C155 33.9349 154.976 34.288 154.93 34.6486C154.806 35.3406 154.603 35.6866 154.323 35.6866H147.136C146.794 35.6866 146.522 35.5569 146.32 35.2974C146.117 35.0378 146.016 34.7422 146.016 34.4107Z" fill="white"/>
<path d="M31.3008 36.71C31.3008 36.71 31.3017 24.0704 31.3008 18.0914C31.2999 12.1123 37.9457 9.00019 41.3912 9C44.8367 8.99981 50.9894 12.1031 50.9894 18.0914C50.9894 24.0796 50.9894 36.71 50.9894 36.71" stroke="#A421BA" stroke-width="9" stroke-linecap="round"/>
<g filter="url(#filter0_d_1393_2434)">
<path d="M30.8643 35.9999V19.458C31.132 14.4488 28.9928 12.4784 28.0996 11.5" stroke="#FFA217" stroke-width="8" stroke-linecap="round" shape-rendering="crispEdges"/>
</g>
<path d="M11.5996 36.71C11.5996 36.71 11.6005 24.0704 11.5996 18.0914C11.5987 12.1123 18.2445 9.00019 21.69 9C25.1355 8.99981 31.2882 12.1031 31.2882 18.0914C31.2882 24.0796 31.2882 36.71 31.2882 36.71" stroke="#FF0069" stroke-width="9" stroke-linecap="round"/>
<g filter="url(#filter1_d_1393_2434)">
<path d="M11.5629 36.71V17.2126C11.5629 13.1572 9.08356 8.22819 5 9.10167" stroke="#FFA217" stroke-width="9" stroke-linecap="round" shape-rendering="crispEdges"/>
</g>
<defs>
<filter id="filter0_d_1393_2434" x="24.0996" y="3.5" width="18.7871" height="40.5" filterUnits="userSpaceOnUse" color-interpolation-filters="sRGB">
<feFlood flood-opacity="0" result="BackgroundImageFix"/>
<feColorMatrix in="SourceAlpha" type="matrix" values="0 0 0 0 0 0 0 0 0 0 0 0 0 0 0 0 0 0 127 0" result="hardAlpha"/>
<feOffset dx="4"/>
<feGaussianBlur stdDeviation="2"/>
<feComposite in2="hardAlpha" operator="out"/>
<feColorMatrix type="matrix" values="0 0 0 0 0 0 0 0 0 0 0 0 0 0 0 0 0 0 0.25 0"/>
<feBlend mode="normal" in2="BackgroundImageFix" result="effect1_dropShadow_1393_2434"/>
<feBlend mode="normal" in="SourceGraphic" in2="effect1_dropShadow_1393_2434" result="shape"/>
</filter>
<filter id="filter1_d_1393_2434" x="0.5" y="0.493896" width="23.5625" height="44.7161" filterUnits="userSpaceOnUse" color-interpolation-filters="sRGB">
<feFlood flood-opacity="0" result="BackgroundImageFix"/>
<feColorMatrix in="SourceAlpha" type="matrix" values="0 0 0 0 0 0 0 0 0 0 0 0 0 0 0 0 0 0 127 0" result="hardAlpha"/>
<feOffset dx="4"/>
<feGaussianBlur stdDeviation="2"/>
<feComposite in2="hardAlpha" operator="out"/>
<feColorMatrix type="matrix" values="0 0 0 0 0 0 0 0 0 0 0 0 0 0 0 0 0 0 0.25 0"/>
<feBlend mode="normal" in2="BackgroundImageFix" result="effect1_dropShadow_1393_2434"/>
<feBlend mode="normal" in="SourceGraphic" in2="effect1_dropShadow_1393_2434" result="shape"/>
</filter>
</defs>
</svg>
