<svg width="30" height="33" viewBox="0 0 30 33" fill="none" xmlns="http://www.w3.org/2000/svg">
<path d="M8.72435 26.2614H4.19194C2.51219 26.2614 1.67232 26.2614 1.49561 26.1311C1.29709 25.9847 1.24858 25.8983 1.22708 25.6529C1.20795 25.4343 1.7227 24.5929 2.75223 22.9102C3.81519 21.1727 4.71778 18.643 4.71778 15.0614C4.71778 13.0811 5.56156 11.1819 7.06348 9.78166C8.56542 8.38139 10.6025 7.59473 12.7265 7.59473C14.8506 7.59473 16.8876 8.38139 18.3895 9.78166C19.8916 11.1819 20.7353 13.0811 20.7353 15.0614C20.7353 18.643 21.6379 21.1727 22.7009 22.9102C23.7303 24.5929 24.2451 25.4343 24.2261 25.6529C24.2046 25.8983 24.156 25.9847 23.9575 26.1311C23.7808 26.2614 22.9409 26.2614 21.2612 26.2614H16.7309M8.72435 26.2614L8.72216 27.5947C8.72216 29.8039 10.515 31.5947 12.7265 31.5947C14.9382 31.5947 16.7309 29.8039 16.7309 27.5947V26.2614M8.72435 26.2614H16.7309" stroke="#4460EF" stroke-width="2" stroke-linecap="round" stroke-linejoin="round"/>
<circle cx="21.2266" cy="8.59473" r="8" fill="#FF5E5E"/>
<path d="M20.1357 7.5957H20.7803C21.096 7.5957 21.3564 7.54362 21.5615 7.43945C21.7699 7.33203 21.9245 7.18718 22.0254 7.00488C22.1296 6.81934 22.1816 6.611 22.1816 6.37988C22.1816 6.10645 22.1361 5.87695 22.0449 5.69141C21.9538 5.50586 21.8171 5.36589 21.6348 5.27148C21.4525 5.17708 21.2214 5.12988 20.9414 5.12988C20.6875 5.12988 20.4629 5.18034 20.2676 5.28125C20.0755 5.37891 19.9242 5.51888 19.8135 5.70117C19.7061 5.88346 19.6523 6.09831 19.6523 6.3457H18.749C18.749 5.98438 18.8402 5.6556 19.0225 5.35938C19.2048 5.06315 19.4603 4.82715 19.7891 4.65137C20.1211 4.47559 20.5052 4.3877 20.9414 4.3877C21.3711 4.3877 21.7471 4.46419 22.0693 4.61719C22.3916 4.76693 22.6423 4.99154 22.8213 5.29102C23.0003 5.58724 23.0898 5.95671 23.0898 6.39941C23.0898 6.57845 23.0475 6.77051 22.9629 6.97559C22.8815 7.17741 22.7529 7.36621 22.5771 7.54199C22.4046 7.71777 22.18 7.86263 21.9033 7.97656C21.6266 8.08724 21.2946 8.14258 20.9072 8.14258H20.1357V7.5957ZM20.1357 8.33789V7.7959H20.9072C21.3597 7.7959 21.734 7.84961 22.0303 7.95703C22.3265 8.06445 22.5592 8.20768 22.7285 8.38672C22.901 8.56576 23.0215 8.7627 23.0898 8.97754C23.1615 9.18913 23.1973 9.40072 23.1973 9.61231C23.1973 9.94434 23.1403 10.2389 23.0264 10.4961C22.9157 10.7533 22.7578 10.9714 22.5527 11.1504C22.3509 11.3294 22.1133 11.4645 21.8398 11.5557C21.5664 11.6468 21.2686 11.6924 20.9463 11.6924C20.637 11.6924 20.3457 11.6484 20.0723 11.5605C19.8021 11.4727 19.5628 11.3457 19.3545 11.1797C19.1462 11.0104 18.9834 10.8037 18.8662 10.5596C18.749 10.3122 18.6904 10.0306 18.6904 9.71484H19.5938C19.5938 9.96224 19.6475 10.1787 19.7549 10.3643C19.8656 10.5498 20.0218 10.6947 20.2236 10.7988C20.4287 10.8997 20.6696 10.9502 20.9463 10.9502C21.223 10.9502 21.4606 10.903 21.6592 10.8086C21.861 10.7109 22.0156 10.5645 22.123 10.3691C22.2337 10.1738 22.2891 9.92806 22.2891 9.63184C22.2891 9.33561 22.2272 9.0931 22.1035 8.9043C21.9798 8.71224 21.804 8.57064 21.5762 8.47949C21.3516 8.38509 21.0863 8.33789 20.7803 8.33789H20.1357Z" fill="white"/>
</svg>
