<svg width="26" height="26" viewBox="0 0 26 26" fill="none" xmlns="http://www.w3.org/2000/svg">
<path d="M22.5436 15.5266L22.43 14.3902H22.3936L22.3561 14.4016L22.5436 15.5266ZM22.5436 15.5266L22.6561 16.6516H22.6936L22.73 16.6402L22.5436 15.5266ZM17.9515 21.7538L18.6709 20.8674H18.6618L17.9515 21.7538ZM17.9515 21.7538L17.2322 22.6288L17.2413 22.6402L17.9515 21.7538ZM7.50158 21.7538L6.78227 20.8674L6.76406 20.8902L6.74704 20.9015L7.50158 21.7538ZM7.50158 21.7538L8.22089 22.6288L8.23907 22.6175L8.25613 22.6061L7.50158 21.7538ZM2.91067 10.6629V9.52653H2.85387L2.79703 9.5379L2.91067 10.6629ZM2.91067 10.6629V11.7993H2.96637H3.02317L2.91067 10.6629ZM16.2845 3.16292C16.2618 2.93565 16.239 2.70837 16.2072 2.51518C16.172 2.31064 16.1163 2.07202 15.9913 1.82202L13.9709 2.86745C13.9447 2.822 13.9504 2.79929 13.9652 2.8902C13.9822 2.99248 13.997 3.12884 14.0231 3.39021L16.2845 3.16292ZM16.3925 4.24248C16.4641 4.33339 16.4413 4.37883 16.4016 4.16293C16.3641 3.94702 16.3334 3.65156 16.2845 3.16292L14.0231 3.39021C14.0675 3.83339 14.1072 4.24244 14.1652 4.56063C14.2209 4.86744 14.3186 5.27653 14.5856 5.61744L16.3925 4.24248ZM16.3925 4.24248L14.5856 5.61744C15.0811 6.27653 15.8868 6.60609 16.6959 6.49246L16.3925 4.24248ZM17.2322 3.56062C16.8538 3.86744 16.6231 4.0493 16.447 4.1743C16.2618 4.31066 16.2754 4.26521 16.3925 4.24248L16.6959 6.49246C17.1323 6.43564 17.4868 6.2197 17.7436 6.03788C18.0107 5.85607 18.3231 5.60606 18.6709 5.32197L17.2322 3.56062ZM18.3868 2.82202C18.1265 2.90157 17.9175 3.02655 17.7493 3.15155C17.5891 3.26518 17.4118 3.41289 17.2322 3.56062L18.6709 5.32197C18.8743 5.15151 18.9845 5.06064 19.0674 5.00382C19.1424 4.94701 19.1322 4.96971 19.0788 4.98107L18.3868 2.82202ZM19.9822 2.90158C19.4777 2.67431 18.9106 2.65157 18.3868 2.82202L19.0788 4.98107L19.9822 2.90158ZM21.0572 3.75385C20.8936 3.5834 20.7311 3.42427 20.5834 3.2879C20.4277 3.15154 20.2334 3.00385 19.9822 2.90158L19.0788 4.98107C19.0265 4.95835 19.0186 4.94701 19.0868 5.00382C19.164 5.07201 19.2652 5.17428 19.4504 5.35609L21.0572 3.75385ZM22.0731 4.76516L21.0572 3.75385L19.4504 5.35609L20.4663 6.36747L22.0731 4.76516ZM22.9231 5.84472C22.8152 5.58336 22.6663 5.39021 22.53 5.24248C22.4004 5.09476 22.2379 4.92425 22.0731 4.76516L20.4663 6.36747C20.6516 6.56066 20.7516 6.65157 20.8186 6.73112C20.8788 6.7993 20.8606 6.79924 20.8379 6.74242L22.9231 5.84472ZM23.0027 7.43566C23.1709 6.91293 23.1424 6.34472 22.9231 5.84472L20.8379 6.74242L23.0027 7.43566ZM22.2641 8.5947C22.4106 8.41288 22.5572 8.23111 22.6709 8.07202C22.7913 7.90156 22.9197 7.69702 23.0027 7.43566L20.8379 6.74242C20.855 6.68561 20.8732 6.67425 20.8197 6.7538C20.7607 6.83334 20.6709 6.94702 20.505 7.15157L22.2641 8.5947ZM21.5777 9.4243C21.5618 9.5493 21.5152 9.56061 21.6447 9.3788C21.7663 9.19698 21.955 8.9697 22.2641 8.5947L20.505 7.15157C20.2197 7.50384 19.9629 7.81066 19.7777 8.07202C19.5993 8.33338 19.3834 8.68565 19.3243 9.12883L21.5777 9.4243ZM21.5777 9.4243L19.3243 9.12883C19.2163 9.93565 19.5493 10.7424 20.1982 11.2311L21.5777 9.4243ZM22.6561 9.5379C22.1709 9.49245 21.8743 9.45839 21.6629 9.4243C21.4413 9.37884 21.4834 9.35611 21.5777 9.4243L20.1982 11.2311C20.5493 11.5038 20.9516 11.6061 21.2607 11.6515C21.58 11.7083 21.9822 11.7538 22.43 11.7993L22.6561 9.5379ZM23.9959 9.83337C23.7527 9.70837 23.514 9.65155 23.3095 9.61746C23.1163 9.58337 22.8879 9.56063 22.6561 9.5379L22.43 11.7993C22.6913 11.822 22.8322 11.8333 22.9334 11.8561C23.0231 11.8674 23.005 11.8788 22.9538 11.8448L23.9959 9.83337ZM25.0674 11.0152C24.8652 10.5038 24.4845 10.0834 23.9959 9.83337L22.9538 11.8448L25.0674 11.0152ZM25.2265 12.3788C25.2265 12.1402 25.2277 11.9129 25.2141 11.7197C25.2004 11.5152 25.1674 11.2652 25.0674 11.0152L22.9538 11.8448C22.9334 11.7993 22.9402 11.7765 22.9459 11.8674C22.9527 11.9697 22.9538 12.1174 22.9538 12.3788H25.2265ZM25.2265 13.8106V12.3788H22.9538V13.8106H25.2265ZM25.0674 15.1743C25.1674 14.9243 25.2004 14.6743 25.2141 14.4698C25.2277 14.2766 25.2265 14.0493 25.2265 13.8106H22.9538C22.9538 14.072 22.9527 14.2197 22.9459 14.322C22.9402 14.4129 22.9334 14.3902 22.9538 14.3447L25.0674 15.1743ZM23.9959 16.3561C24.4845 16.1061 24.8652 15.6857 25.0674 15.1743L22.9538 14.3447L23.9959 16.3561ZM22.6561 16.6516C22.8879 16.6288 23.1163 16.6061 23.3095 16.572C23.514 16.5379 23.7527 16.4811 23.9959 16.3561L22.9538 14.3447C23.005 14.3106 23.0231 14.322 22.9334 14.3334C22.8322 14.3561 22.6913 14.3675 22.43 14.3902L22.6561 16.6516ZM21.5777 16.7652C21.4834 16.8333 21.4413 16.8106 21.6629 16.7652C21.8743 16.7311 22.1709 16.697 22.6561 16.6516L22.43 14.3902C21.9834 14.4357 21.58 14.4811 21.2607 14.5379C20.9527 14.5834 20.5493 14.6857 20.1993 14.9584L21.5777 16.7652ZM21.5777 16.7652L20.1993 14.9584C19.5504 15.447 19.2163 16.2538 19.3254 17.0606L21.5777 16.7652ZM22.2641 17.5948C21.955 17.2198 21.7663 16.9925 21.6447 16.8107C21.5163 16.6288 21.5618 16.6402 21.5777 16.7652L19.3254 17.0606C19.3845 17.5038 19.5993 17.8561 19.7788 18.1175C19.964 18.3789 20.2209 18.6856 20.505 19.0379L22.2641 17.5948ZM23.0027 18.7538C22.9197 18.4924 22.7913 18.288 22.6709 18.1175C22.5572 17.9584 22.4106 17.7766 22.2641 17.5948L20.505 19.0379C20.6709 19.2424 20.7607 19.356 20.8197 19.4356C20.8732 19.5151 20.855 19.5038 20.8379 19.447L23.0027 18.7538ZM22.9231 20.3447C23.1424 19.8447 23.1709 19.2765 23.0027 18.7538L20.8379 19.447L22.9231 20.3447ZM22.0731 21.4242C22.2379 21.2651 22.4004 21.0948 22.53 20.947C22.6663 20.7993 22.8152 20.6061 22.9231 20.3447L20.8379 19.447C20.8606 19.3901 20.8788 19.3902 20.8186 19.4583C20.7516 19.5265 20.6516 19.6289 20.4663 19.8221L22.0731 21.4242ZM21.0572 22.4356L22.0731 21.4242L20.4663 19.8221L19.4504 20.8334L21.0572 22.4356ZM19.9822 23.2879C20.2334 23.1856 20.4277 23.0379 20.5834 22.9016C20.7311 22.7652 20.8936 22.6061 21.0572 22.4356L19.4504 20.8334C19.2652 21.0152 19.164 21.1175 19.0868 21.1856C19.0186 21.2425 19.0265 21.2311 19.0788 21.2084L19.9822 23.2879ZM18.3868 23.3675C18.9106 23.538 19.4777 23.5152 19.9822 23.2879L19.0788 21.2084L18.3868 23.3675ZM17.2322 22.6288C17.4118 22.7766 17.5891 22.9243 17.7493 23.0379C17.9175 23.1629 18.1265 23.288 18.3868 23.3675L19.0788 21.2084C19.1322 21.2197 19.1424 21.2425 19.0674 21.1856C18.9845 21.1288 18.8743 21.0379 18.6709 20.8674L17.2322 22.6288ZM16.3925 21.947C16.2754 21.9243 16.2618 21.8788 16.447 22.0152C16.6231 22.1288 16.8538 22.322 17.2322 22.6288L18.6709 20.8674C18.3231 20.5833 18.0107 20.3333 17.7436 20.1401C17.4868 19.9697 17.1323 19.7539 16.6959 19.6971L16.3925 21.947ZM16.3925 21.947L16.6959 19.6971C15.8868 19.5834 15.0811 19.9129 14.5856 20.572L16.3925 21.947ZM16.2845 23.0265C16.3334 22.5379 16.3641 22.2424 16.4016 22.0265C16.4413 21.8106 16.4641 21.8561 16.3925 21.947L14.5856 20.572C14.3186 20.9129 14.2209 21.322 14.1652 21.6288C14.1072 21.947 14.0686 22.3561 14.0231 22.7993L16.2845 23.0265ZM15.9902 24.3675C16.1163 24.1175 16.172 23.8789 16.2072 23.6743C16.239 23.4812 16.2618 23.2538 16.2845 23.0265L14.0231 22.7993C13.997 23.0607 13.9822 23.197 13.9652 23.2993C13.9504 23.3902 13.9447 23.3675 13.9709 23.322L15.9902 24.3675ZM14.8072 25.4356C15.3175 25.2311 15.7391 24.8561 15.9902 24.3675L13.9709 23.322L14.8072 25.4356ZM13.4447 25.5947C13.6765 25.5947 13.9072 25.5947 14.1027 25.5834C14.3095 25.572 14.5527 25.5379 14.8072 25.4356L13.9709 23.322C14.0243 23.2993 14.0425 23.3106 13.9516 23.3106C13.8482 23.322 13.7072 23.322 13.4447 23.322V25.5947ZM12.0084 25.5947H13.4447V23.322H12.0084V25.5947ZM10.647 25.4356C10.9004 25.5379 11.1436 25.572 11.3504 25.5834C11.5459 25.5947 11.7766 25.5947 12.0084 25.5947V23.322C11.7459 23.322 11.6038 23.322 11.5016 23.3106C11.4107 23.3106 11.4288 23.2993 11.4822 23.322L10.647 25.4356ZM9.46181 24.3675C9.71409 24.8561 10.1357 25.2311 10.647 25.4356L11.4822 23.322L9.46181 24.3675ZM9.1686 23.0265C9.19133 23.2538 9.21408 23.4812 9.2459 23.6743C9.28113 23.8789 9.33681 24.1175 9.46181 24.3675L11.4822 23.322C11.5084 23.3675 11.5027 23.3902 11.4879 23.2993C11.4709 23.197 11.4561 23.0607 11.43 22.7993L9.1686 23.0265ZM9.06065 21.947C8.98906 21.8561 9.01179 21.8106 9.05156 22.0265C9.08906 22.2424 9.11974 22.5379 9.1686 23.0265L11.43 22.7993C11.3857 22.3561 11.3459 21.947 11.2879 21.6288C11.2323 21.322 11.1345 20.9129 10.8675 20.572L9.06065 21.947ZM9.06065 21.947L10.8675 20.572C10.372 19.9129 9.56633 19.5834 8.75724 19.6971L9.06065 21.947ZM8.22089 22.6288C8.5993 22.322 8.83 22.1402 9.00613 22.0152C9.19136 21.8788 9.17769 21.9243 9.06065 21.947L8.75724 19.6971C8.32088 19.7539 7.96634 19.9697 7.70952 20.1515C7.44247 20.3333 7.13 20.5833 6.78227 20.8674L8.22089 22.6288ZM7.06636 23.3675C7.32659 23.288 7.53565 23.1629 7.70383 23.0379C7.86406 22.9243 8.04135 22.7766 8.22089 22.6288L6.78227 20.8674C6.57886 21.0379 6.46864 21.1288 6.38568 21.1856C6.31068 21.2425 6.3209 21.2197 6.37431 21.2084L7.06636 23.3675ZM5.47088 23.2879C5.97543 23.5152 6.5425 23.538 7.06636 23.3675L6.37431 21.2084L5.47088 23.2879ZM4.3959 22.4356C4.55954 22.6061 4.72203 22.7652 4.86976 22.9016C5.02544 23.0379 5.21975 23.1856 5.47088 23.2879L6.37431 21.2084C6.42658 21.2311 6.43455 21.2425 6.36637 21.1856C6.28909 21.1175 6.18795 21.0152 6.00272 20.8334L4.3959 22.4356ZM3.37998 21.4242L4.3959 22.4356L6.00272 20.8334L4.9868 19.8221L3.37998 21.4242ZM2.53 20.3447C2.63795 20.6061 2.78679 20.7993 2.92316 20.947C3.0527 21.0948 3.21521 21.2651 3.37998 21.4242L4.9868 19.8221C4.80157 19.6289 4.70158 19.5379 4.63453 19.4583C4.5743 19.3902 4.59249 19.3901 4.61521 19.447L2.53 20.3447ZM2.45045 18.7538C2.28227 19.2765 2.31068 19.8447 2.53 20.3447L4.61521 19.447L2.45045 18.7538ZM3.18908 17.5948C3.04248 17.7766 2.89589 17.9584 2.78226 18.1175C2.6618 18.288 2.5334 18.4924 2.45045 18.7538L4.61521 19.447C4.59703 19.5038 4.57998 19.5151 4.63339 19.4356C4.69248 19.356 4.78226 19.2424 4.94817 19.0379L3.18908 17.5948ZM3.87544 16.7652C3.89135 16.6402 3.93682 16.6288 3.80841 16.8107C3.68682 16.9925 3.49817 17.2198 3.18908 17.5948L4.94817 19.0379C5.23339 18.6856 5.49023 18.3789 5.67546 18.1175C5.85386 17.8561 6.06976 17.5038 6.12885 17.0606L3.87544 16.7652ZM3.87544 16.7652L6.12885 17.0606C6.2368 16.2538 5.90386 15.447 5.25386 14.9584L3.87544 16.7652ZM2.79703 16.6516C3.28226 16.697 3.57884 16.7311 3.7902 16.7652C4.01179 16.8106 3.96976 16.8333 3.87544 16.7652L5.25386 14.9584C4.90386 14.6857 4.50157 14.5834 4.19248 14.5379C3.87316 14.4811 3.4709 14.4357 3.02317 14.3902L2.79703 16.6516ZM1.45728 16.3561C1.70046 16.4811 1.9391 16.5379 2.14364 16.572C2.33682 16.6061 2.56521 16.6288 2.79703 16.6516L3.02317 14.3902C2.76181 14.3675 2.62091 14.3561 2.51977 14.3334C2.43 14.322 2.44817 14.3106 2.49931 14.3447L1.45728 16.3561ZM0.385694 15.1743C0.587966 15.6857 0.96864 16.1061 1.45728 16.3561L2.49931 14.3447L0.385694 15.1743ZM0.226587 13.8106C0.226587 14.0493 0.225435 14.2766 0.239071 14.4698C0.252707 14.6743 0.285694 14.9243 0.385694 15.1743L2.49931 14.3447C2.51976 14.3902 2.51293 14.4129 2.50725 14.322C2.50043 14.2197 2.49931 14.072 2.49931 13.8106H0.226587ZM0.226587 12.3788V13.8106H2.49931V12.3788H0.226587ZM0.385694 11.0152C0.285694 11.2652 0.252707 11.5152 0.239071 11.7197C0.225435 11.9129 0.226587 12.1402 0.226587 12.3788H2.49931C2.49931 12.1174 2.50043 11.9697 2.50725 11.8674C2.51293 11.7765 2.51976 11.7993 2.49931 11.8448L0.385694 11.0152ZM1.45728 9.83337C0.96864 10.0834 0.587966 10.5038 0.385694 11.0152L2.49931 11.8448L1.45728 9.83337ZM2.79703 9.5379C2.56521 9.56063 2.33682 9.58337 2.14364 9.61746C1.9391 9.65155 1.70046 9.70837 1.45728 9.83337L2.49931 11.8448C2.44817 11.8788 2.43 11.8674 2.51977 11.8561C2.62091 11.8333 2.76181 11.822 3.02317 11.7993L2.79703 9.5379ZM3.87659 9.4243C3.9709 9.35611 4.01179 9.37884 3.7902 9.4243C3.57997 9.45839 3.28226 9.49245 2.79703 9.5379L3.02317 11.7993C3.4709 11.7538 3.87317 11.7083 4.19362 11.6515C4.50158 11.6061 4.90497 11.5038 5.25497 11.2311L3.87659 9.4243ZM3.87659 9.4243L5.25497 11.2311C5.90384 10.7424 6.23794 9.93565 6.12885 9.12883L3.87659 9.4243ZM3.18908 8.5947C3.49817 8.9697 3.68682 9.19698 3.80955 9.3788C3.93796 9.56061 3.8925 9.5493 3.87659 9.4243L6.12885 9.12883C6.06976 8.68565 5.855 8.33338 5.67546 8.07202C5.49023 7.81066 5.23339 7.49248 4.94817 7.15157L3.18908 8.5947ZM2.45045 7.43566C2.5334 7.69702 2.6618 7.90156 2.78226 8.07202C2.89589 8.23111 3.04248 8.41288 3.18908 8.5947L4.94817 7.15157C4.78226 6.94702 4.69248 6.83334 4.63339 6.7538C4.57998 6.67425 4.59817 6.68561 4.61521 6.74242L2.45045 7.43566ZM2.53 5.83335C2.31068 6.34471 2.28227 6.91293 2.45045 7.43566L4.61521 6.74242L2.53 5.83335ZM3.37998 4.76516C3.21521 4.92425 3.0527 5.09476 2.92316 5.24248C2.78679 5.39021 2.63795 5.58335 2.53 5.83335L4.61521 6.74242C4.59249 6.79924 4.5743 6.7993 4.63453 6.73112C4.70158 6.65157 4.80157 6.56066 4.9868 6.36747L3.37998 4.76516ZM4.3959 3.74248L3.37998 4.76516L4.9868 6.36747L6.00272 5.35609L4.3959 3.74248ZM5.47088 2.90158C5.21975 3.00385 5.02544 3.15154 4.86976 3.2879C4.72203 3.42427 4.55954 3.58339 4.3959 3.74248L6.00272 5.35609C6.18795 5.17428 6.28909 5.07201 6.36637 5.00382C6.43455 4.94701 6.42658 4.95835 6.37431 4.98107L5.47088 2.90158ZM7.06636 2.82202C6.5425 2.65157 5.97543 2.67431 5.47088 2.90158L6.37431 4.98107L7.06636 2.82202ZM8.22089 3.56062C8.04135 3.41289 7.86406 3.26518 7.70383 3.15155C7.53565 3.02655 7.32659 2.90157 7.06636 2.82202L6.37431 4.98107C6.3209 4.96971 6.31068 4.94701 6.38568 5.00382C6.46864 5.06064 6.57886 5.15157 6.78227 5.31066L8.22089 3.56062ZM9.06065 4.24248C9.17769 4.25384 9.19136 4.31066 9.00613 4.1743C8.83 4.0493 8.5993 3.86744 8.22089 3.56062L6.78227 5.31066C7.13 5.60612 7.44247 5.85607 7.70952 6.03788C7.96634 6.2197 8.32088 6.43564 8.75724 6.49246L9.06065 4.24248ZM9.06065 4.24248L8.75724 6.49246C9.56633 6.60609 10.372 6.27653 10.8675 5.61744L9.06065 4.24248ZM9.1686 3.16292C9.11974 3.65156 9.08906 3.94702 9.05156 4.16293C9.01179 4.37883 8.98906 4.33339 9.06065 4.24248L10.8675 5.61744C11.1345 5.27653 11.2323 4.86744 11.2879 4.56063C11.3459 4.24244 11.3857 3.83339 11.43 3.39021L9.1686 3.16292ZM9.46181 1.82202C9.33681 2.07202 9.28113 2.31064 9.2459 2.51518C9.21408 2.70837 9.19133 2.93565 9.1686 3.16292L11.43 3.39021C11.4561 3.12884 11.4709 2.99248 11.4879 2.8902C11.5027 2.79929 11.5084 2.822 11.4822 2.86745L9.46181 1.82202ZM10.647 0.753834C10.1357 0.95838 9.71409 1.33338 9.46181 1.82202L11.4822 2.86745L10.647 0.753834ZM12.0084 0.594727C11.7766 0.594727 11.5459 0.594738 11.3504 0.606101C11.1436 0.617465 10.9016 0.651561 10.647 0.753834L11.4822 2.86745C11.4288 2.89018 11.4107 2.87883 11.5016 2.87883C11.6038 2.86747 11.7459 2.86745 12.0084 2.86745V0.594727ZM13.4447 0.594727H12.0084V2.86745H13.4447V0.594727ZM14.8061 0.753834C14.5527 0.651561 14.3095 0.617465 14.1027 0.606101C13.9072 0.594738 13.6765 0.594727 13.4447 0.594727V2.86745C13.7072 2.86745 13.8493 2.86747 13.9516 2.87883C14.0425 2.87883 14.0243 2.89018 13.9709 2.86745L14.8061 0.753834ZM15.9913 1.82202C15.739 1.33338 15.3175 0.95838 14.8061 0.753834L13.9709 2.86745L15.9913 1.82202ZM16.1356 13.0947C16.1356 14.9811 14.6095 16.5038 12.7266 16.5038V18.7765C15.8641 18.7765 18.4084 16.2311 18.4084 13.0947H16.1356ZM12.7266 9.68564C14.6095 9.68564 16.1356 11.2084 16.1356 13.0947H18.4084C18.4084 9.95836 15.8641 7.41291 12.7266 7.41291V9.68564ZM9.31748 13.0947C9.31748 11.2084 10.8436 9.68564 12.7266 9.68564V7.41291C9.58907 7.41291 7.04476 9.95836 7.04476 13.0947H9.31748ZM12.7266 16.5038C10.8436 16.5038 9.31748 14.9811 9.31748 13.0947H7.04476C7.04476 16.2311 9.58907 18.7765 12.7266 18.7765V16.5038Z" fill="#A7A7A7"/>
</svg>
