<svg width="21" height="29" viewBox="0 0 21 29" fill="none" xmlns="http://www.w3.org/2000/svg">
<path d="M17.3253 0.866538C17.0464 0.736599 16.7252 0.780076 16.49 0.977883L0.772518 14.1859C0.593579 14.3361 0.492188 14.5578 0.492188 14.7914C0.492188 15.025 0.596423 15.2467 0.775252 15.397L16.4968 28.6048C16.6422 28.727 16.8233 28.7902 17.006 28.7902C17.1193 28.7902 17.2184 28.7659 17.325 28.7162C17.6037 28.5863 17.767 28.3067 17.767 27.9993V1.58355C17.7672 1.27604 17.604 0.996422 17.3253 0.866538ZM16.1853 26.3017L2.48474 14.7914L16.1853 3.28107V26.3017Z" fill="#4460EF"/>
<path d="M20.1386 0.79248C19.7018 0.79248 19.3477 1.14669 19.3477 1.58343V28.0017C19.3477 28.4385 19.7019 28.7926 20.1386 28.7926C20.5754 28.7926 20.9296 28.4384 20.9296 28.0017V1.58343C20.9296 1.14659 20.5753 0.79248 20.1386 0.79248Z" fill="#4460EF"/>
</svg>
