<svg width="27" height="27" viewBox="0 0 27 27" fill="none" xmlns="http://www.w3.org/2000/svg">
<path d="M6.02656 6.78744L11.4266 12.2184M6.02656 6.78744H2.42656L1.22656 3.16683L2.42656 1.95996L6.02656 3.16683V6.78744ZM21.9374 2.85426L18.7842 6.02546C18.309 6.5034 18.0713 6.74236 17.9824 7.01793C17.904 7.26033 17.904 7.52142 17.9824 7.76382C18.0713 8.03939 18.309 8.27835 18.7842 8.75629L19.0689 9.04263C19.5441 9.52058 19.7818 9.75954 20.0558 9.84908C20.2967 9.92784 20.5564 9.92784 20.7974 9.84908C21.0713 9.75954 21.309 9.52058 21.7842 9.04263L24.7337 6.07626C25.0514 6.85367 25.2266 7.70513 25.2266 8.59775C25.2266 12.2637 22.2717 15.2355 18.6266 15.2355C18.1871 15.2355 17.7576 15.1923 17.3423 15.1099C16.7589 14.9943 16.4672 14.9363 16.2904 14.9541C16.1024 14.9729 16.0097 15.0013 15.8432 15.0909C15.6864 15.1753 15.5294 15.3333 15.215 15.6495L6.62656 24.2871C5.63245 25.2868 4.02068 25.2868 3.02656 24.2871C2.03245 23.2873 2.03245 21.6662 3.02656 20.6664L11.615 12.0289C11.9294 11.7127 12.0864 11.5546 12.1703 11.3971C12.2595 11.2295 12.2877 11.1364 12.3064 10.9473C12.324 10.7694 12.2664 10.4761 12.1515 9.88939C12.0695 9.47159 12.0266 9.03971 12.0266 8.59775C12.0266 4.93179 14.9814 1.95996 18.6266 1.95996C19.8332 1.95996 20.9642 2.2856 21.9374 2.85426ZM13.2267 17.6492L19.8266 24.2869C20.8206 25.2867 22.4325 25.2867 23.4266 24.2869C24.4206 23.2872 24.4206 21.6661 23.4266 20.6663L17.9969 15.2057C17.6126 15.1692 17.2378 15.0994 16.8755 14.9993C16.4086 14.8705 15.8964 14.9641 15.5542 15.3083L13.2267 17.6492Z" stroke="#A7A7A7" stroke-width="2" stroke-linecap="round" stroke-linejoin="round"/>
</svg>
