<svg width="25" height="20" viewBox="0 0 25 20" fill="none" xmlns="http://www.w3.org/2000/svg">
<path d="M12.2256 8.96004C14.2595 8.96004 15.9083 7.31126 15.9083 5.27738C15.9083 3.24351 14.2595 1.59473 12.2256 1.59473C10.1918 1.59473 8.54297 3.24351 8.54297 5.27738C8.54297 7.31126 10.1918 8.96004 12.2256 8.96004Z" stroke="#A7A7A7" stroke-width="2" stroke-linecap="round"/>
<path d="M16.2391 5.27727C16.5644 4.71383 17.1008 4.30136 17.7293 4.13318C18.359 3.96501 19.0293 4.05341 19.5927 4.37871C20.1562 4.70401 20.5686 5.24044 20.7368 5.86895C20.905 6.49868 20.8166 7.16893 20.4913 7.73238C20.166 8.29582 19.6296 8.70829 19.0011 8.87646C18.3713 9.04464 17.7011 8.95624 17.1376 8.63094C16.5742 8.30564 16.1617 7.76921 15.9935 7.1407C15.8254 6.51097 15.9138 5.84072 16.2391 5.27727Z" stroke="#A7A7A7" stroke-width="2"/>
<path d="M3.96562 5.27727C4.29093 4.71383 4.82735 4.30136 5.45586 4.13318C6.08559 3.96501 6.75584 4.05341 7.31929 4.37871C7.88274 4.70401 8.2952 5.24044 8.46338 5.86895C8.63155 6.49868 8.54315 7.16893 8.21785 7.73238C7.89255 8.29582 7.35612 8.70829 6.72762 8.87646C6.09788 9.04464 5.42763 8.95624 4.86419 8.63094C4.30074 8.30564 3.88827 7.76921 3.7201 7.1407C3.55192 6.51097 3.64032 5.84072 3.96562 5.27727Z" stroke="#A7A7A7" stroke-width="2"/>
<path d="M18.2186 17.5528L17.0144 17.7947L17.2132 18.7804H18.2186V17.5528ZM15.6395 13.5154L14.8968 12.537L13.4766 13.6161L14.9913 14.5576L15.6395 13.5154ZM21.8828 16.3252H18.2186V18.7804H21.8828V16.3252ZM21.7736 16.6174C21.765 16.5941 21.7564 16.5474 21.7662 16.491C21.776 16.4382 21.7981 16.3977 21.819 16.3719C21.8583 16.3228 21.8914 16.3252 21.8828 16.3252V18.7804C23.2896 18.7804 24.6743 17.4534 24.0875 15.7974L21.7736 16.6174ZM18.3634 13.8701C20.3791 13.8701 21.3133 15.3199 21.7736 16.6174L24.0875 15.7974C23.5167 14.1881 21.9823 11.415 18.3634 11.415V13.8701ZM16.3821 14.4925C16.8535 14.1341 17.4821 13.8701 18.3634 13.8701V11.415C16.937 11.415 15.7892 11.8594 14.8968 12.537L16.3821 14.4925ZM14.9913 14.5576C16.2668 15.3506 16.8008 16.7328 17.0144 17.7947L19.4216 17.3109C19.154 15.9815 18.4088 13.7916 16.2876 12.472L14.9913 14.5576Z" fill="#A7A7A7"/>
<path d="M8.81281 13.5154L9.46097 14.5576L10.9757 13.6161L9.55549 12.537L8.81281 13.5154ZM6.23374 17.5528V18.7804H7.23911L7.43795 17.7947L6.23374 17.5528ZM6.08888 13.8701C6.97026 13.8701 7.59878 14.1341 8.07016 14.4925L9.55549 12.537C8.66306 11.8594 7.51529 11.415 6.08888 11.415V13.8701ZM2.67872 16.6174C3.13905 15.3199 4.07323 13.8701 6.08888 13.8701V11.415C2.47005 11.415 0.935617 14.1881 0.364805 15.7974L2.67872 16.6174ZM2.56948 16.3252C2.56088 16.3252 2.59403 16.3228 2.63331 16.3719C2.65418 16.3977 2.67628 16.4382 2.6861 16.491C2.69592 16.5474 2.68731 16.5941 2.67872 16.6174L0.364805 15.7974C-0.221965 17.4534 1.1627 18.7804 2.56948 18.7804V16.3252ZM6.23374 16.3252H2.56948V18.7804H6.23374V16.3252ZM7.43795 17.7947C7.65155 16.7328 8.18555 15.3506 9.46097 14.5576L8.16468 12.472C6.04347 13.7916 5.29833 15.9815 5.03073 17.3109L7.43795 17.7947Z" fill="#A7A7A7"/>
<path d="M12.2295 12.6426C16.6143 12.6426 17.8664 15.774 18.2236 17.5638C18.3574 18.2279 17.8173 18.7803 17.1397 18.7803H7.31925C6.64164 18.7803 6.10152 18.2279 6.23533 17.5638C6.59254 15.774 7.84464 12.6426 12.2295 12.6426Z" stroke="#A7A7A7" stroke-width="2" stroke-linecap="round"/>
</svg>
