<svg width="30" height="30" viewBox="0 0 30 30" fill="none" xmlns="http://www.w3.org/2000/svg">
<path d="M27.7766 13.9333H26.3556C25.5537 13.9333 24.9056 14.4538 24.9056 15.0947C24.9056 15.7342 25.5537 16.2533 26.3556 16.2533H27.7766C28.577 16.2533 29.2266 15.7356 29.2266 15.0947C29.2266 14.4553 28.5755 13.9333 27.7766 13.9333ZM14.7266 7.11973C13.6784 7.11647 12.6399 7.32053 11.6708 7.72016C10.7018 8.11979 9.82133 8.7071 9.08013 9.44829C8.33893 10.1895 7.75162 11.0699 7.35199 12.039C6.95237 13.008 6.74831 14.0465 6.75156 15.0947C6.75156 19.5187 10.3026 23.0697 14.7266 23.0697C19.1491 23.0697 22.7016 19.5187 22.7016 15.0947C22.7016 10.6708 19.1476 7.11973 14.7266 7.11973ZM14.7266 20.8947C11.5206 20.8947 8.92656 18.2978 8.92656 15.0947C8.92656 11.8888 11.5206 9.29473 14.7266 9.29473C16.2648 9.29473 17.7401 9.9058 18.8278 10.9935C19.9155 12.0812 20.5266 13.5565 20.5266 15.0947C20.5266 16.633 19.9155 18.1082 18.8278 19.1959C17.7401 20.2837 16.2648 20.8947 14.7266 20.8947ZM4.57656 15.0947C4.57656 14.4553 3.92551 13.9333 3.12656 13.9333H1.67656C0.874713 13.9333 0.226562 14.4538 0.226562 15.0947C0.226562 15.7342 0.874713 16.2533 1.67656 16.2533H3.12656C3.92551 16.2533 4.57656 15.7342 4.57656 15.0947ZM14.7266 4.94473C15.366 4.94473 15.8851 4.29658 15.8851 3.49473V2.04473C15.8851 1.24288 15.366 0.594727 14.7266 0.594727C14.0857 0.594727 13.5651 1.24288 13.5651 2.04473V3.49473C13.5651 4.29658 14.0857 4.94473 14.7266 4.94473ZM14.7266 25.2447C14.0857 25.2447 13.5651 25.8929 13.5651 26.6947V28.1447C13.5651 28.9466 14.0857 29.5947 14.7266 29.5947C15.366 29.5947 15.8851 28.9466 15.8851 28.1447V26.6947C15.8851 25.8929 15.366 25.2447 14.7266 25.2447ZM25.4058 6.05543C25.9728 5.48848 26.0641 4.66198 25.6117 4.20958C25.1593 3.75718 24.3314 3.84998 23.7673 4.41693L22.7523 5.43048C22.1854 5.99743 22.094 6.82393 22.5464 7.27633C22.9988 7.72873 23.8268 7.63593 24.3923 7.06898L25.4058 6.05543ZM5.06086 23.1176L4.04586 24.134C3.47891 24.701 3.38756 25.5246 3.83996 25.977C4.29236 26.4294 5.12031 26.3395 5.68436 25.7725L6.69936 24.759C7.26631 24.192 7.35766 23.3655 6.90526 22.9117C6.45286 22.4578 5.62491 22.5535 5.06086 23.1176ZM5.68581 4.41548C5.12031 3.84853 4.29236 3.75573 3.83996 4.20813C3.38756 4.66053 3.48036 5.48848 4.04441 6.05543L5.05941 7.06898C5.62636 7.63593 6.45141 7.72873 6.90381 7.27633C7.35621 6.82393 7.26486 5.99598 6.69936 5.43048L5.68581 4.41548ZM22.7509 24.7604L23.7659 25.774C24.3328 26.3409 25.1579 26.4308 25.6103 25.9813C26.0627 25.5289 25.9713 24.701 25.4044 24.1355L24.3908 23.1219C23.8239 22.555 22.9974 22.4622 22.5435 22.9146C22.0897 23.367 22.1839 24.1935 22.7509 24.7604Z" fill="#808080"/>
</svg>
