<svg width="25" height="23" viewBox="0 0 25 23" fill="none" xmlns="http://www.w3.org/2000/svg">
<path d="M14.4139 17.3911H0.889524C0.52337 17.3911 0.226562 17.6879 0.226562 18.0541V22.297C0.226562 22.6632 0.52337 22.96 0.889524 22.96H14.4139C14.78 22.96 15.0769 22.6632 15.0769 22.297V18.0541C15.0769 17.6879 14.78 17.3911 14.4139 17.3911ZM13.751 21.6341H1.55249V18.717H13.751V21.6341Z" fill="#A7A7A7"/>
<path d="M23.5628 0.551758H0.889524C0.523371 0.551758 0.226562 0.848566 0.226562 1.21472V5.45767C0.226562 5.82383 0.523371 6.12064 0.889524 6.12064H23.5628C23.9289 6.12064 24.2258 5.82383 24.2258 5.45767V1.21472C24.2258 0.848566 23.9289 0.551758 23.5628 0.551758ZM22.8999 4.79471H1.55249V1.87768H22.8999V4.79471Z" fill="#A7A7A7"/>
<path d="M23.5624 6.99902H10.038C9.67181 6.99902 9.375 7.29583 9.375 7.66199V15.7998C9.375 16.166 9.67181 16.4628 10.038 16.4628H23.5624C23.9285 16.4628 24.2253 16.166 24.2253 15.7998V7.66199C24.2253 7.29583 23.9285 6.99902 23.5624 6.99902ZM22.8994 15.1369H10.7009V8.32495H22.8994V15.1369Z" fill="#A7A7A7"/>
<path d="M0.889524 16.4628H7.41546C7.78161 16.4628 8.07842 16.166 8.07842 15.7998V7.66199C8.07842 7.29583 7.78161 6.99902 7.41546 6.99902H0.889524C0.523371 6.99902 0.226562 7.29583 0.226562 7.66199V15.7998C0.226562 16.166 0.523371 16.4628 0.889524 16.4628ZM1.55249 8.32495H6.75249V15.1369H1.55249V8.32495Z" fill="#A7A7A7"/>
<path d="M23.5658 17.3911H16.8036C16.4375 17.3911 16.1406 17.6879 16.1406 18.0541V22.297C16.1406 22.6632 16.4375 22.96 16.8036 22.96H23.5658C23.9319 22.96 24.2288 22.6632 24.2288 22.297V18.0541C24.2288 17.6879 23.9319 17.3911 23.5658 17.3911ZM22.9028 21.6341H17.4665V18.717H22.9028V21.6341Z" fill="#A7A7A7"/>
<path d="M12.0926 11.2004H21.5067C21.8728 11.2004 22.1697 10.9036 22.1697 10.5375C22.1697 10.1713 21.8728 9.87451 21.5067 9.87451H12.0926C11.7265 9.87451 11.4297 10.1713 11.4297 10.5375C11.4297 10.9036 11.7265 11.2004 12.0926 11.2004Z" fill="#A7A7A7"/>
<path d="M12.0926 13.5872H21.5067C21.8728 13.5872 22.1697 13.2903 22.1697 12.9242C22.1697 12.558 21.8728 12.2612 21.5067 12.2612H12.0926C11.7265 12.2612 11.4297 12.558 11.4297 12.9242C11.4297 13.2903 11.7265 13.5872 12.0926 13.5872Z" fill="#A7A7A7"/>
<path d="M5.79212 10.0902C5.53324 9.83127 5.11345 9.83127 4.8545 10.0902L4.15136 10.7933L3.44822 10.0902C3.18934 9.83127 2.76955 9.83127 2.5106 10.0902C2.25164 10.349 2.25171 10.7688 2.5106 11.0278L3.21373 11.7309L2.5106 12.4341C2.25171 12.6929 2.25171 13.1127 2.5106 13.3717C2.64007 13.5012 2.80972 13.5659 2.97938 13.5659C3.14903 13.5659 3.31875 13.5012 3.44816 13.3717L4.15129 12.6686L4.85443 13.3717C4.98391 13.5012 5.15356 13.5659 5.32321 13.5659C5.49286 13.5659 5.66258 13.5012 5.79199 13.3717C6.05088 13.1128 6.05088 12.693 5.79199 12.4341L5.08892 11.7309L5.79206 11.0278C6.05101 10.7688 6.05101 10.349 5.79212 10.0902Z" fill="#A7A7A7"/>
</svg>
