<svg width="155" height="49" viewBox="0 0 155 49" fill="none" xmlns="http://www.w3.org/2000/svg">
<path d="M70.2503 16.1765C69.7311 16.1765 69.4715 16.1156 69.4715 15.9937L69.2878 12.3282L68.2202 16.0394C68.1969 16.1125 67.9986 16.1491 67.6252 16.1491C67.2519 16.1491 67.0594 16.1156 67.0477 16.0485L65.9452 12.2917L65.8227 15.9388C65.8169 16.0302 65.706 16.0942 65.4902 16.1308C65.2743 16.1613 65.0935 16.1765 64.9477 16.1765C64.8077 16.1765 64.6706 16.1674 64.5364 16.1491C64.2564 16.1064 64.1193 16.0303 64.1252 15.9206L64.3264 9.97903C64.3264 9.83278 64.6823 9.75965 65.3939 9.75965C65.6039 9.75965 65.8606 9.77794 66.164 9.8145C66.4673 9.84497 66.6365 9.90895 66.6715 10.0065L67.6515 12.8858L68.509 9.99731C68.5615 9.83887 68.964 9.75965 69.7165 9.75965C69.9324 9.75965 70.189 9.77794 70.4865 9.8145C70.7899 9.84497 70.9415 9.90286 70.9415 9.98817L71.1953 15.9845C71.1953 16.0516 71.0815 16.1003 70.854 16.1308C70.6265 16.1613 70.4253 16.1765 70.2503 16.1765ZM74.9378 10.0704C75.0136 9.85716 75.387 9.75051 76.0578 9.75051C76.227 9.75051 76.4253 9.7627 76.6528 9.78708C76.8862 9.81145 76.9941 9.84192 76.9766 9.87849L75.1565 13.6993V15.9297C75.1565 16.0333 74.9961 16.1064 74.6753 16.1491C74.512 16.1735 74.3516 16.1856 74.194 16.1856C74.0365 16.1856 73.879 16.1765 73.7215 16.1582C73.4007 16.1156 73.2403 16.0394 73.2403 15.9297V13.7542L71.359 9.89676C71.3357 9.8602 71.4553 9.82669 71.7178 9.79622C71.9803 9.75965 72.2019 9.74137 72.3828 9.74137C73.1003 9.74137 73.494 9.85106 73.564 10.0704L74.2028 11.9352L74.9378 10.0704ZM80.9528 16.1856C80.4453 16.1856 80.1711 16.1003 80.1303 15.9297L79.8415 14.7505H78.4503L78.1965 15.884C78.1615 16.0729 77.8815 16.1674 77.3565 16.1674C77.0765 16.1674 76.8694 16.1521 76.7352 16.1217C76.6011 16.0851 76.534 16.0577 76.534 16.0394L78.0827 9.85106C78.0827 9.80231 78.4823 9.77793 79.2815 9.77793C80.0807 9.77793 80.4803 9.80231 80.4803 9.85106L81.9941 16.0485C81.9941 16.0912 81.8599 16.1247 81.5916 16.1491C81.3232 16.1735 81.1103 16.1856 80.9528 16.1856ZM78.669 13.5897H79.5878L79.194 11.6975H79.1415L78.669 13.5897ZM87.3692 15.9663C87.3692 16.0942 87.095 16.1582 86.5467 16.1582C85.9984 16.1582 85.7008 16.1125 85.6542 16.0211L84.1929 13.1692V16.012C84.1929 16.1217 83.9217 16.1765 83.3791 16.1765C82.8425 16.1765 82.5741 16.1217 82.5741 16.012V9.89676C82.5741 9.80535 82.8046 9.75965 83.2654 9.75965C83.4462 9.75965 83.6562 9.77794 83.8954 9.8145C84.1404 9.84497 84.2892 9.90591 84.3417 9.99731L85.7417 12.8127V9.94247C85.7417 9.82669 86.0129 9.76879 86.5554 9.76879C87.098 9.76879 87.3692 9.82669 87.3692 9.94247V15.9663ZM94.373 16.1765C93.8538 16.1765 93.5942 16.1156 93.5942 15.9937L93.4105 12.3282L92.3429 16.0394C92.3196 16.1125 92.1213 16.1491 91.7479 16.1491C91.3746 16.1491 91.1821 16.1156 91.1704 16.0485L90.0679 12.2917L89.9454 15.9388C89.9396 16.0302 89.8287 16.0942 89.6129 16.1308C89.397 16.1613 89.2162 16.1765 89.0704 16.1765C88.9304 16.1765 88.7933 16.1674 88.6591 16.1491C88.3791 16.1064 88.242 16.0303 88.2479 15.9206L88.4491 9.97903C88.4491 9.83278 88.805 9.75965 89.5166 9.75965C89.7266 9.75965 89.9833 9.77794 90.2867 9.8145C90.59 9.84497 90.7592 9.90895 90.7942 10.0065L91.7742 12.8858L92.6317 9.99731C92.6842 9.83887 93.0867 9.75965 93.8392 9.75965C94.0551 9.75965 94.3117 9.77794 94.6092 9.8145C94.9126 9.84497 95.0642 9.90286 95.0642 9.98817L95.318 15.9845C95.318 16.0516 95.2042 16.1003 94.9767 16.1308C94.7492 16.1613 94.548 16.1765 94.373 16.1765ZM100.299 16.1856C99.7915 16.1856 99.5173 16.1003 99.4765 15.9297L99.1877 14.7505H97.7965L97.5427 15.884C97.5077 16.0729 97.2277 16.1674 96.7027 16.1674C96.4227 16.1674 96.2156 16.1521 96.0814 16.1217C95.9473 16.0851 95.8802 16.0577 95.8802 16.0394L97.429 9.85106C97.429 9.80231 97.8285 9.77793 98.6277 9.77793C99.4269 9.77793 99.8265 9.80231 99.8265 9.85106L101.34 16.0485C101.34 16.0912 101.206 16.1247 100.938 16.1491C100.669 16.1735 100.457 16.1856 100.299 16.1856ZM98.0152 13.5897H98.934L98.5402 11.6975H98.4877L98.0152 13.5897ZM103.591 16.0394C103.591 16.1369 103.314 16.1856 102.76 16.1856C102.2 16.1856 101.92 16.1399 101.92 16.0485V10.0887C101.92 9.87543 102.028 9.76879 102.244 9.76879H103.915C105.449 9.76879 106.216 10.3934 106.216 11.6427C106.216 12.0205 106.146 12.3648 106.006 12.6756C105.866 12.9803 105.668 13.224 105.411 13.4068L106.514 15.3264C106.467 15.4727 106.315 15.6402 106.059 15.8292C105.709 16.0912 105.42 16.2222 105.193 16.2222C104.965 16.2222 104.796 16.1369 104.685 15.9663L103.863 13.9644H103.591V16.0394ZM103.591 11.3867V12.7578H103.635C104.189 12.7578 104.466 12.5171 104.466 12.0357C104.466 11.8163 104.411 11.6548 104.3 11.5513C104.195 11.4416 104.02 11.3867 103.775 11.3867H103.591ZM111.574 12.3099C111.685 12.3099 111.741 12.5232 111.741 12.9498C111.741 13.0778 111.726 13.2301 111.697 13.4068C111.673 13.5775 111.627 13.6628 111.557 13.6628H110.446V14.5769H112.056C112.155 14.5769 112.222 14.7109 112.257 14.9791C112.274 15.0948 112.283 15.2198 112.283 15.3538C112.283 15.4818 112.266 15.6494 112.231 15.8566C112.196 16.0638 112.137 16.1674 112.056 16.1674H109.063C108.841 16.1674 108.731 16.0729 108.731 15.884V10.0065C108.731 9.84802 108.798 9.76879 108.932 9.76879H112.064C112.187 9.76879 112.248 10.04 112.248 10.5823C112.248 11.1186 112.187 11.3867 112.064 11.3867H110.446V12.3099H111.574ZM113.046 15.7469V10.2624C113.046 10.1101 113.081 9.99122 113.151 9.9059C113.227 9.8145 113.323 9.76879 113.44 9.76879H114.901C115.828 9.76879 116.531 10.0125 117.01 10.5001C117.494 10.9876 117.736 11.7554 117.736 12.8035C117.736 15.0461 116.82 16.1674 114.988 16.1674H113.492C113.195 16.1674 113.046 16.0272 113.046 15.7469ZM114.726 11.5055V14.2387C114.726 14.3666 114.735 14.4489 114.752 14.4855C114.77 14.5159 114.822 14.5312 114.91 14.5312C115.23 14.5312 115.472 14.4062 115.636 14.1564C115.805 13.9065 115.89 13.4921 115.89 12.9132C115.89 12.3282 115.802 11.9474 115.627 11.7706C115.458 11.5939 115.187 11.5055 114.813 11.5055H114.726ZM121.299 9.95161C121.299 9.82973 121.614 9.76879 122.244 9.76879C122.88 9.76879 123.198 9.82973 123.198 9.95161V14.1472C123.198 14.7688 122.985 15.2777 122.559 15.6738C122.133 16.0638 121.544 16.2588 120.791 16.2588C120.045 16.2588 119.435 16.0577 118.963 15.6555C118.496 15.2472 118.263 14.6987 118.263 14.0101V9.96075C118.263 9.83887 118.578 9.77793 119.208 9.77793C119.844 9.77793 120.161 9.83887 120.161 9.96075V14.0833C120.161 14.2051 120.223 14.3026 120.345 14.3758C120.474 14.4489 120.608 14.4855 120.748 14.4855C120.888 14.4855 121.013 14.4519 121.124 14.3849C121.241 14.3179 121.299 14.2173 121.299 14.0833V9.95161ZM126.435 9.68652C126.86 9.68652 127.234 9.75051 127.555 9.87849C127.881 10.0004 128.045 10.1679 128.045 10.3812C128.045 10.5945 127.966 10.8596 127.808 11.1765C127.657 11.4873 127.528 11.6427 127.423 11.6427C127.394 11.6427 127.359 11.6274 127.318 11.597C127.283 11.5604 127.196 11.5238 127.056 11.4873C126.922 11.4446 126.805 11.4233 126.706 11.4233C126.368 11.4233 126.093 11.5482 125.883 11.7981C125.679 12.0479 125.577 12.4318 125.577 12.9498C125.577 13.4617 125.682 13.8425 125.892 14.0924C126.108 14.3422 126.379 14.4672 126.706 14.4672C126.84 14.4672 126.989 14.4489 127.152 14.4123C127.321 14.3697 127.441 14.3118 127.511 14.2387C127.523 14.2265 127.546 14.2204 127.581 14.2204C127.616 14.2204 127.68 14.2904 127.773 14.4306C127.873 14.5647 127.963 14.7444 128.045 14.9699C128.126 15.1893 128.167 15.3599 128.167 15.4818C128.167 15.7195 127.992 15.9084 127.642 16.0485C127.292 16.1887 126.878 16.2588 126.4 16.2588C125.63 16.2588 124.997 15.9754 124.501 15.4087C124.005 14.8419 123.757 14.0436 123.757 13.0138C123.757 11.9778 124.011 11.1643 124.518 10.5732C125.032 9.98208 125.67 9.68652 126.435 9.68652ZM132.949 16.1856C132.442 16.1856 132.168 16.1003 132.127 15.9297L131.838 14.7505H130.447L130.193 15.884C130.158 16.0729 129.878 16.1674 129.353 16.1674C129.073 16.1674 128.866 16.1521 128.732 16.1217C128.598 16.0851 128.531 16.0577 128.531 16.0394L130.079 9.85106C130.079 9.80231 130.479 9.77793 131.278 9.77793C132.077 9.77793 132.477 9.80231 132.477 9.85106L133.991 16.0485C133.991 16.0912 133.857 16.1247 133.588 16.1491C133.32 16.1735 133.107 16.1856 132.949 16.1856ZM130.666 13.5897H131.584L131.191 11.6975H131.138L130.666 13.5897ZM136.982 16.0211C136.982 16.143 136.693 16.2039 136.116 16.2039C135.538 16.2039 135.25 16.143 135.25 16.0211V11.4324H134.2C134.1 11.4324 134.03 11.2923 133.99 11.0119C133.972 10.8779 133.963 10.7408 133.963 10.6006C133.963 10.4604 133.972 10.3233 133.99 10.1893C134.03 9.90895 134.1 9.76879 134.2 9.76879H138.006C138.105 9.76879 138.175 9.90895 138.216 10.1893C138.233 10.3233 138.242 10.4604 138.242 10.6006C138.242 10.7408 138.233 10.8779 138.216 11.0119C138.175 11.2923 138.105 11.4324 138.006 11.4324H136.982V16.0211ZM139.318 14.5951V11.341H138.697C138.598 11.341 138.528 11.21 138.487 10.948C138.469 10.82 138.461 10.689 138.461 10.5549C138.461 10.4208 138.469 10.2898 138.487 10.1618C138.528 9.89981 138.598 9.76879 138.697 9.76879H141.637C141.736 9.76879 141.803 9.89981 141.838 10.1618C141.861 10.2898 141.873 10.4208 141.873 10.5549C141.873 10.689 141.861 10.82 141.838 10.948C141.803 11.21 141.736 11.341 141.637 11.341H141.051V14.5951H141.663C141.762 14.5951 141.832 14.7262 141.873 14.9882C141.896 15.1162 141.908 15.2472 141.908 15.3813C141.908 15.5153 141.896 15.6463 141.873 15.7743C141.832 16.0363 141.762 16.1674 141.663 16.1674H138.714C138.615 16.1674 138.548 16.0363 138.513 15.7743C138.49 15.6463 138.478 15.5153 138.478 15.3813C138.478 15.2472 138.49 15.1162 138.513 14.9882C138.548 14.7262 138.615 14.5951 138.714 14.5951H139.318ZM145.091 16.2588C144.274 16.2588 143.606 15.9785 143.087 15.4178C142.574 14.8572 142.317 14.0406 142.317 12.9681C142.317 11.8895 142.576 11.0729 143.096 10.5183C143.621 9.9638 144.294 9.68652 145.117 9.68652C145.945 9.68652 146.613 9.96075 147.121 10.5092C147.628 11.0516 147.882 11.8773 147.882 12.9864C147.882 14.0893 147.622 14.912 147.103 15.4544C146.584 15.9906 145.913 16.2588 145.091 16.2588ZM145.099 11.4416C144.819 11.4416 144.583 11.5756 144.391 11.8438C144.204 12.1119 144.111 12.4897 144.111 12.9772C144.111 13.4586 144.201 13.8304 144.382 14.0924C144.563 14.3483 144.799 14.4763 145.091 14.4763C145.388 14.4763 145.627 14.3453 145.808 14.0833C145.995 13.8212 146.088 13.4464 146.088 12.9589C146.088 12.4714 145.992 12.0967 145.799 11.8346C145.613 11.5726 145.379 11.4416 145.099 11.4416ZM153.38 15.9663C153.38 16.0942 153.105 16.1582 152.557 16.1582C152.009 16.1582 151.711 16.1125 151.665 16.0211L150.203 13.1692V16.012C150.203 16.1217 149.932 16.1765 149.39 16.1765C148.853 16.1765 148.585 16.1217 148.585 16.012V9.89676C148.585 9.80535 148.815 9.75965 149.276 9.75965C149.457 9.75965 149.667 9.77794 149.906 9.8145C150.151 9.84497 150.3 9.90591 150.352 9.99731L151.752 12.8127V9.94247C151.752 9.82669 152.023 9.76879 152.566 9.76879C153.108 9.76879 153.38 9.82669 153.38 9.94247V15.9663Z" fill="white"/>
<path d="M66.8851 38.6874C65.4694 38.6874 64.7617 38.5248 64.7617 38.1999V22.4046C64.7617 21.852 65.0027 21.5758 65.4851 21.5758H69.5918C71.8942 21.5758 73.5509 22.0713 74.5619 23.0627C75.5886 24.0541 76.1019 25.4923 76.1019 27.3772C76.1019 28.9372 75.6196 30.3674 74.6552 31.6673C74.1729 32.3174 73.4652 32.8373 72.5319 33.2273C71.5985 33.6173 70.5095 33.8123 69.2651 33.8123V38.1755C69.2651 38.3705 68.9695 38.5088 68.3785 38.5899C67.8028 38.6551 67.3051 38.6874 66.8851 38.6874ZM69.2651 25.8172V29.6685H69.5685C70.1128 29.6685 70.5718 29.4899 70.9452 29.1322C71.3185 28.7746 71.5052 28.2711 71.5052 27.621C71.5052 26.9708 71.3728 26.5077 71.1085 26.2315C70.8595 25.9554 70.4085 25.8172 69.7552 25.8172H69.2651ZM87.4261 38.8824C85.2484 38.8824 83.467 38.1348 82.0827 36.6399C80.7136 35.145 80.0293 32.9672 80.0293 30.1073C80.0293 27.2309 80.7216 25.0535 82.106 23.5746C83.506 22.0957 85.3027 21.3564 87.4961 21.3564C89.7051 21.3564 91.4861 22.0877 92.8395 23.5502C94.1929 24.9964 94.8695 27.1986 94.8695 30.156C94.8695 33.0974 94.1772 35.2912 92.7928 36.7374C91.4085 38.1675 89.6194 38.8824 87.4261 38.8824ZM87.4494 26.0365C86.7027 26.0365 86.0727 26.3942 85.5594 27.1091C85.0617 27.824 84.8127 28.8317 84.8127 30.1316C84.8127 31.4155 85.0537 32.4065 85.536 33.1054C86.0184 33.788 86.6484 34.1292 87.4261 34.1292C88.2194 34.1292 88.8571 33.78 89.3394 33.0811C89.8371 32.3822 90.0861 31.3828 90.0861 30.0829C90.0861 28.783 89.8294 27.7836 89.3161 27.0847C88.8184 26.3858 88.1961 26.0365 87.4494 26.0365ZM103.533 38.2974C103.533 38.5576 102.794 38.6874 101.317 38.6874C99.8232 38.6874 99.0765 38.5655 99.0765 38.3218V22.429C99.0765 21.8603 99.3642 21.5758 99.9399 21.5758H104.397C108.488 21.5758 110.533 23.2414 110.533 26.5728C110.533 27.5802 110.347 28.4985 109.973 29.3272C109.6 30.1396 109.071 30.7898 108.387 31.2773L111.327 36.3961C111.202 36.7861 110.798 37.2329 110.113 37.7368C109.18 38.4357 108.41 38.7849 107.803 38.7849C107.197 38.7849 106.745 38.5575 106.45 38.1024L104.257 32.7642H103.533V38.2974ZM103.533 25.8903V29.5466H103.65C105.128 29.5466 105.867 28.9049 105.867 27.621C105.867 27.0359 105.719 26.6052 105.423 26.329C105.143 26.0365 104.677 25.8903 104.023 25.8903H103.533ZM122.196 38.2487C122.196 38.5735 121.426 38.7362 119.886 38.7362C118.346 38.7362 117.576 38.5735 117.576 38.2487V26.0122H114.776C114.512 26.0122 114.325 25.6385 114.216 24.8909C114.169 24.5333 114.146 24.1676 114.146 23.794C114.146 23.4204 114.169 23.0547 114.216 22.6971C114.325 21.9495 114.512 21.5758 114.776 21.5758H124.926C125.191 21.5758 125.378 21.9495 125.486 22.6971C125.533 23.0547 125.556 23.4204 125.556 23.794C125.556 24.1676 125.533 24.5333 125.486 24.8909C125.378 25.6385 125.191 26.0122 124.926 26.0122H122.196V38.2487ZM139.593 38.6874C138.24 38.6874 137.509 38.46 137.4 38.0049L136.63 34.8605H132.92L132.243 37.883C132.15 38.3869 131.403 38.6387 130.003 38.6387C129.257 38.6387 128.704 38.5979 128.346 38.5168C127.988 38.4193 127.81 38.3462 127.81 38.2974L131.94 21.7952C131.94 21.6653 133.005 21.6002 135.137 21.6002C137.268 21.6002 138.333 21.6653 138.333 21.7952L142.37 38.3218C142.37 38.4357 142.012 38.5248 141.297 38.5899C140.581 38.6551 140.013 38.6874 139.593 38.6874ZM133.503 31.7648H135.953L134.903 26.7191H134.763L133.503 31.7648ZM146.016 37.2005V22.039C146.016 21.6977 146.802 21.5271 148.373 21.5271C149.96 21.5271 150.753 21.6977 150.753 22.039V33.983H154.346C154.626 33.983 154.821 34.365 154.93 35.1286C154.976 35.5022 155 35.8842 155 36.2743C155 36.6643 154.976 37.0623 154.93 37.4686C154.805 38.2487 154.603 38.6387 154.323 38.6387H147.136C146.794 38.6387 146.522 38.4924 146.32 38.1999C146.117 37.9074 146.016 37.5742 146.016 37.2005Z" fill="white"/>
<path d="M31.3008 39.792C31.3008 39.792 31.3017 25.5457 31.3008 18.8067C31.2999 12.0675 37.9457 8.55978 41.3912 8.55957C44.8367 8.55936 50.9894 12.0571 50.9894 18.8067C50.9894 25.5561 50.9894 39.792 50.9894 39.792" stroke="#A421BA" stroke-width="9" stroke-linecap="round"/>
<g filter="url(#filter0_d_835_730)">
<path d="M30.8643 38.9918V20.347C31.132 14.7011 28.9928 12.4802 28.0996 11.3774" stroke="#FFA217" stroke-width="8" stroke-linecap="round" shape-rendering="crispEdges"/>
</g>
<path d="M11.5996 39.792C11.5996 39.792 11.6005 25.5457 11.5996 18.8067C11.5987 12.0675 18.2445 8.55978 21.69 8.55957C25.1355 8.55936 31.2882 12.0571 31.2882 18.8067C31.2882 25.5561 31.2882 39.792 31.2882 39.792" stroke="#FF0069" stroke-width="9" stroke-linecap="round"/>
<g filter="url(#filter1_d_835_730)">
<path d="M11.5629 39.792V17.8162C11.5629 13.2452 9.08356 7.68964 5 8.67416" stroke="#FFA217" stroke-width="9" stroke-linecap="round" shape-rendering="crispEdges"/>
</g>
<defs>
<filter id="filter0_d_835_730" x="24.0996" y="3.37744" width="18.7871" height="43.6143" filterUnits="userSpaceOnUse" color-interpolation-filters="sRGB">
<feFlood flood-opacity="0" result="BackgroundImageFix"/>
<feColorMatrix in="SourceAlpha" type="matrix" values="0 0 0 0 0 0 0 0 0 0 0 0 0 0 0 0 0 0 127 0" result="hardAlpha"/>
<feOffset dx="4"/>
<feGaussianBlur stdDeviation="2"/>
<feComposite in2="hardAlpha" operator="out"/>
<feColorMatrix type="matrix" values="0 0 0 0 0 0 0 0 0 0 0 0 0 0 0 0 0 0 0.25 0"/>
<feBlend mode="normal" in2="BackgroundImageFix" result="effect1_dropShadow_835_730"/>
<feBlend mode="normal" in="SourceGraphic" in2="effect1_dropShadow_835_730" result="shape"/>
</filter>
<filter id="filter1_d_835_730" x="0.498047" y="0.0488281" width="23.5645" height="48.2432" filterUnits="userSpaceOnUse" color-interpolation-filters="sRGB">
<feFlood flood-opacity="0" result="BackgroundImageFix"/>
<feColorMatrix in="SourceAlpha" type="matrix" values="0 0 0 0 0 0 0 0 0 0 0 0 0 0 0 0 0 0 127 0" result="hardAlpha"/>
<feOffset dx="4"/>
<feGaussianBlur stdDeviation="2"/>
<feComposite in2="hardAlpha" operator="out"/>
<feColorMatrix type="matrix" values="0 0 0 0 0 0 0 0 0 0 0 0 0 0 0 0 0 0 0.25 0"/>
<feBlend mode="normal" in2="BackgroundImageFix" result="effect1_dropShadow_835_730"/>
<feBlend mode="normal" in="SourceGraphic" in2="effect1_dropShadow_835_730" result="shape"/>
</filter>
</defs>
</svg>